<svg width="20" height="20" viewBox="0 0 20 20" fill="none" xmlns="http://www.w3.org/2000/svg">
<g clip-path="url(#clip0_1549_4167)">
<path d="M3.33398 0V20H15.0007L20.0007 15V0H3.33398Z" fill="#EFEEEE"/>
<path d="M15 15V20L20 15H15Z" fill="#ABABAB"/>
<path d="M10 20H15V15L10 20Z" fill="#DEDEDD"/>
<path d="M0 5V10.8333H13.3333V5H0Z" fill="#448E47"/>
<path d="M3.3493 6.77663C3.28763 6.65747 3.17513 6.5983 3.0118 6.5983C2.9218 6.5983 2.84763 6.62247 2.7893 6.67163C2.73096 6.71997 2.68513 6.79747 2.6518 6.9058C2.61846 7.01413 2.59513 7.1558 2.5818 7.33163C2.56763 7.50663 2.5618 7.7208 2.5618 7.97413C2.5618 8.24413 2.57096 8.46247 2.5893 8.62913C2.6068 8.7958 2.63596 8.92413 2.6743 9.01663C2.71263 9.10913 2.76096 9.1708 2.8193 9.20163C2.87763 9.2333 2.94513 9.24997 3.0218 9.24997C3.08513 9.24997 3.1443 9.23913 3.1993 9.21747C3.2543 9.1958 3.3018 9.15247 3.3418 9.08747C3.38263 9.02247 3.4143 8.9308 3.4368 8.81247C3.46013 8.69413 3.4718 8.5383 3.4718 8.34497H4.19096C4.19096 8.53747 4.17596 8.72163 4.14596 8.89497C4.11596 9.0683 4.0593 9.21997 3.97846 9.34997C3.89596 9.47913 3.7818 9.5808 3.63346 9.65413C3.48513 9.72747 3.29263 9.76497 3.05596 9.76497C2.7868 9.76497 2.57096 9.7208 2.4118 9.63497C2.2518 9.5483 2.1293 9.4233 2.0443 9.25997C1.9593 9.09663 1.9043 8.90163 1.8793 8.67497C1.85513 8.44913 1.8418 8.1983 1.8418 7.9258C1.8418 7.6558 1.85513 7.40663 1.8793 7.1783C1.9043 6.9508 1.96013 6.75413 2.0443 6.5908C2.13013 6.4283 2.2518 6.29997 2.4118 6.2083C2.57096 6.11747 2.7868 6.0708 3.05596 6.0708C3.31346 6.0708 3.51513 6.11247 3.66346 6.1958C3.8118 6.27913 3.92263 6.38497 3.99513 6.5133C4.06763 6.64163 4.11513 6.77997 4.13263 6.9283C4.15096 7.07663 4.16013 7.2158 4.16013 7.3458H3.44096C3.44096 7.0833 3.41013 6.89413 3.3493 6.77663Z" fill="white"/>
<path d="M5.68094 8.69836C5.68094 8.78169 5.68844 8.85753 5.70094 8.92503C5.7151 8.99336 5.73927 9.05086 5.77594 9.09753C5.8126 9.14503 5.8626 9.18169 5.92427 9.20836C5.9851 9.23419 6.06344 9.24836 6.15594 9.24836C6.26677 9.24836 6.3651 9.21253 6.45344 9.14086C6.54094 9.06919 6.58594 8.95753 6.58594 8.80836C6.58594 8.72836 6.57427 8.65919 6.55344 8.60086C6.53177 8.54253 6.49594 8.49003 6.44594 8.44419C6.3951 8.39669 6.32927 8.35503 6.24844 8.31669C6.1676 8.27836 6.06594 8.23919 5.94594 8.19919C5.78677 8.14586 5.64844 8.08669 5.53094 8.02336C5.41427 7.96086 5.31677 7.88669 5.23844 7.80086C5.1601 7.71586 5.1026 7.61753 5.06594 7.50586C5.02927 7.39336 5.01094 7.26503 5.01094 7.11753C5.01094 6.76419 5.10927 6.50169 5.30594 6.32836C5.50177 6.15503 5.7726 6.06836 6.11594 6.06836C6.27594 6.06836 6.42344 6.08586 6.55844 6.12086C6.69344 6.15586 6.8101 6.21169 6.90844 6.29086C7.00677 6.36919 7.08344 6.46919 7.13844 6.59003C7.1926 6.71169 7.22094 6.85753 7.22094 7.02753V7.12753H6.53177C6.53177 6.95753 6.50177 6.82669 6.4426 6.73419C6.3826 6.64336 6.2826 6.59669 6.1426 6.59669C6.0626 6.59669 5.99594 6.60919 5.9426 6.63169C5.8901 6.65503 5.84677 6.68586 5.8151 6.72419C5.78344 6.76253 5.76094 6.80836 5.74927 6.85836C5.73677 6.90836 5.73177 6.96003 5.73177 7.01336C5.73177 7.12419 5.7551 7.21586 5.80177 7.29086C5.84844 7.36669 5.94844 7.43586 6.10177 7.49836L6.65677 7.73836C6.79344 7.79836 6.9051 7.86086 6.99094 7.92669C7.0776 7.99169 7.1476 8.06169 7.19844 8.13669C7.2501 8.21169 7.28594 8.29336 7.30594 8.38419C7.32594 8.47336 7.33594 8.57419 7.33594 8.68336C7.33594 9.06003 7.22677 9.33419 7.00844 9.50586C6.7901 9.67753 6.48594 9.76419 6.09594 9.76419C5.68927 9.76419 5.39844 9.67586 5.2226 9.49919C5.0476 9.32253 4.96094 9.06919 4.96094 8.73919V8.59419H5.68094V8.69836Z" fill="white"/>
<path d="M9.23539 8.77818H9.25122L9.78122 6.13818H10.5271L9.70706 9.70818H8.78206L7.96289 6.13818H8.73289L9.23539 8.77818Z" fill="white"/>
</g>
<defs>
<clipPath id="clip0_1549_4167">
<rect width="20" height="20" fill="white"/>
</clipPath>
</defs>
</svg>
