<svg width="20" height="20" viewBox="0 0 20 20" fill="none" xmlns="http://www.w3.org/2000/svg">
<path d="M5 0C4.3125 0 3.75 0.5625 3.75 1.25L3.75 18.75C3.75 19.4375 4.3125 20 5 20H17.5C18.1875 20 18.75 19.4375 18.75 18.75V5L13.75 0L5 0Z" fill="#E2E5E7"/>
<path d="M15 5H18.75L13.75 0V3.75C13.75 4.4375 14.3125 5 15 5Z" fill="#B0B7BD"/>
<path d="M18.75 8.75L15 5H18.75V8.75Z" fill="#CAD1D8"/>
<path d="M16.25 16.25C16.25 16.5938 15.9688 16.875 15.625 16.875H1.875C1.53125 16.875 1.25 16.5938 1.25 16.25L1.25 10C1.25 9.65625 1.53125 9.375 1.875 9.375L15.625 9.375C15.9688 9.375 16.25 9.65625 16.25 10V16.25Z" fill="#F15642"/>
<path d="M3.97461 11.8421C3.97461 11.6771 4.10461 11.4971 4.31398 11.4971H5.46836C6.11836 11.4971 6.70336 11.9321 6.70336 12.7658C6.70336 13.5558 6.11836 13.9958 5.46836 13.9958H4.63398V14.6558C4.63398 14.8758 4.49398 15.0002 4.31398 15.0002C4.14898 15.0002 3.97461 14.8758 3.97461 14.6558L3.97461 11.8421ZM4.63398 12.1264V13.3714H5.46836C5.80336 13.3714 6.06836 13.0758 6.06836 12.7658C6.06836 12.4164 5.80336 12.1264 5.46836 12.1264H4.63398Z" fill="white"/>
<path d="M7.68289 15.0001C7.51789 15.0001 7.33789 14.9101 7.33789 14.6907V11.852C7.33789 11.6726 7.51789 11.542 7.68289 11.542H8.82727C11.111 11.542 11.061 15.0001 8.87227 15.0001H7.68289ZM7.99789 12.152V14.3907H8.82727C10.1766 14.3907 10.2366 12.152 8.82727 12.152H7.99789Z" fill="white"/>
<path d="M11.8705 12.1921V12.9865H13.1449C13.3249 12.9865 13.5049 13.1665 13.5049 13.3409C13.5049 13.5059 13.3249 13.6409 13.1449 13.6409H11.8705V14.6903C11.8705 14.8653 11.7462 14.9996 11.5712 14.9996C11.3512 14.9996 11.2168 14.8653 11.2168 14.6903V11.8515C11.2168 11.6721 11.3518 11.5415 11.5712 11.5415H13.3255C13.5455 11.5415 13.6755 11.6721 13.6755 11.8515C13.6755 12.0115 13.5455 12.1915 13.3255 12.1915H11.8705V12.1921Z" fill="white"/>
<path d="M15.625 16.875H3.75V17.5H15.625C15.9688 17.5 16.25 17.2188 16.25 16.875V16.25C16.25 16.5938 15.9688 16.875 15.625 16.875Z" fill="#CAD1D8"/>
</svg>
