<svg width="28" height="28" viewBox="0 0 28 28" fill="none" xmlns="http://www.w3.org/2000/svg">
<path d="M10.1172 16.7181C10.1172 18.2231 11.2722 19.4364 12.7072 19.4364H15.6355C16.8839 19.4364 17.8989 18.3748 17.8989 17.0681C17.8989 15.6448 17.2805 15.1431 16.3589 14.8164L11.6572 13.1831C10.7355 12.8564 10.1172 12.3548 10.1172 10.9314C10.1172 9.62478 11.1322 8.56311 12.3805 8.56311H15.3089C16.7439 8.56311 17.8989 9.77644 17.8989 11.2814" stroke="#00E4C9" stroke-width="1.5" stroke-linecap="round" stroke-linejoin="round"/>
<path d="M14 7V21" stroke="#00E4C9" stroke-width="1.5" stroke-linecap="round" stroke-linejoin="round"/>
<path d="M17.5007 25.6667H10.5007C4.66732 25.6667 2.33398 23.3334 2.33398 17.5V10.5C2.33398 4.66671 4.66732 2.33337 10.5007 2.33337H17.5007C23.334 2.33337 25.6673 4.66671 25.6673 10.5V17.5C25.6673 23.3334 23.334 25.6667 17.5007 25.6667Z" stroke="#00E4C9" stroke-width="1.5" stroke-linecap="round" stroke-linejoin="round"/>
</svg>
