<svg width="48" height="48" viewBox="0 0 48 48" fill="none" xmlns="http://www.w3.org/2000/svg">
<path d="M40.3462 23.2174C40.2168 23.2174 40.0928 23.166 40.0013 23.0745C39.9098 22.9831 39.8584 22.859 39.8584 22.7296V18.9341C39.8584 18.8047 39.9098 18.6806 40.0013 18.5892C40.0928 18.4977 40.2168 18.4463 40.3462 18.4463C40.4756 18.4463 40.5996 18.4977 40.6911 18.5892C40.7826 18.6806 40.834 18.8047 40.834 18.9341V22.7296C40.834 22.859 40.7826 22.9831 40.6911 23.0745C40.5996 23.166 40.4756 23.2174 40.3462 23.2174Z" fill="white"/>
<path d="M32.3931 25.8337C32.2637 25.8337 32.1396 25.7823 32.0481 25.6908C31.9567 25.5994 31.9053 25.4753 31.9053 25.3459V21.5505C31.9053 21.4212 31.9567 21.2971 32.0481 21.2056C32.1396 21.1141 32.2637 21.0627 32.3931 21.0627C32.5224 21.0627 32.6465 21.1141 32.738 21.2056C32.8295 21.2971 32.8809 21.4212 32.8809 21.5505V25.3459C32.8809 25.4753 32.8295 25.5994 32.738 25.6908C32.6465 25.7823 32.5224 25.8337 32.3931 25.8337V25.8337Z" fill="white"/>
<path d="M43.9994 28.7109V42.5366C43.9989 42.9246 43.8446 43.2965 43.5703 43.5709C43.2959 43.8452 42.924 43.9995 42.536 44H38.5625C38.5015 44.0001 38.4409 43.9887 38.3841 43.9665L23.8086 38.2704C23.8459 38.2541 23.8853 38.2428 23.9257 38.237C33.0085 36.8589 31.8779 32.453 37.5325 29.8914C39.152 29.1583 41.9269 28.6635 43.9994 28.7109V28.7109Z" fill="#CCCCCC"/>
<path d="M44.0001 22.6203V28.7109C41.9276 28.6635 39.1527 29.1583 37.5332 29.8914C35.5233 30.8019 34.4212 31.8768 33.2698 33.1875C30.0705 36.8163 27.8761 37.6347 23.9263 38.2369C23.886 38.2428 23.8466 38.254 23.8093 38.2704L19.2922 36.5045C19.2012 36.4685 19.1232 36.4059 19.0681 36.325C19.0131 36.2441 18.9835 36.1485 18.9834 36.0507C18.9832 35.9528 19.0125 35.8571 19.0673 35.776C19.1221 35.695 19.1999 35.6322 19.2908 35.5958C22.5061 34.3234 25.2643 31.5164 27.766 28.6718C31.4283 24.5109 36.4313 22.6624 41.9555 22.2064C43.6237 22.0698 43.6572 22.0977 43.8314 22.251C43.8841 22.297 43.9264 22.3538 43.9555 22.4175C43.9846 22.4812 43.9998 22.5503 44.0001 22.6203V22.6203Z" fill="#F3F3F3"/>
<path d="M43.9997 42.439V42.5366C43.9993 42.9246 43.845 43.2965 43.5706 43.5709C43.2963 43.8452 42.9243 43.9995 42.5363 44H5.4634C5.07542 43.9995 4.70346 43.8452 4.42911 43.5709C4.15476 43.2965 4.00044 42.9246 4 42.5366V32.329C4.00027 32.2385 4.02553 32.1499 4.073 32.073C4.12047 31.996 4.1883 31.9336 4.26899 31.8928C4.47944 31.7882 9.4801 29.3548 15.4313 33.2098C21.0977 36.883 25.1151 37.8668 31.7308 38.4181C35.3531 38.722 41.6959 40.5491 43.9997 42.439Z" fill="#76757B"/>
<path d="M23.3169 20.4247C25.1362 12.6228 14.4183 12.6288 16.2368 20.4247C16.3901 21.0841 15.9189 21.1194 15.1872 21.784C15.0976 21.8654 15.0415 21.9771 15.0297 22.0975C14.5638 26.9805 14.5383 26.7935 14.5887 26.9646C16.6662 34.0235 23.3309 33.6248 25.1079 26.4377C26.3938 21.2341 22.9988 21.7856 23.3169 20.4247V20.4247Z" fill="white"/>
<path d="M17.9735 15.032C16.0213 16.0621 15.7863 18.497 16.2358 20.4247C16.3891 21.0841 15.9179 21.1193 15.1862 21.784C15.0966 21.8653 15.0405 21.977 15.0287 22.0974C14.5628 26.9805 14.5373 26.7934 14.5877 26.9646C16.3229 32.86 21.3612 33.5764 23.95 29.3032C19.2103 25.9792 18.1844 17.7207 17.9735 15.032V15.032Z" fill="#F3F3F3"/>
<path d="M14.1429 18.5892C14.8076 17.2296 15.7894 13.4882 14.3773 11.2259C13.6268 10.0237 12.3564 9.41406 10.6026 9.41406C8.84873 9.41406 7.57821 10.0237 6.82797 11.2259C5.41586 13.4879 6.39773 17.2296 7.0624 18.5892C7.75744 20.0108 4.70074 21.0201 4.90213 24.7238C4.97502 26.0662 5.6245 27.2085 6.83243 28.1189C10.6667 31.0089 16.0984 28.5218 16.3044 24.7236C16.5041 21.0297 13.4494 20.0072 14.1429 18.5892V18.5892Z" fill="white"/>
<path d="M8.98913 9.62476C8.09107 9.86383 7.31802 10.4365 6.82761 11.2259C5.41549 13.4879 6.39737 17.2296 7.06203 18.5892C7.35346 19.1855 7.08238 19.5848 6.44141 20.4312C1.03504 27.5696 11.0952 32.3408 15.3206 27.2224C8.44321 23.3841 8.77728 12.4723 8.98913 9.62476V9.62476Z" fill="#F3F3F3"/>
<path d="M10.603 37.6097C10.4737 37.6097 10.3496 37.5583 10.2581 37.4668C10.1666 37.3753 10.1152 37.2513 10.1152 37.1219V16.4764C10.1152 16.3471 10.1666 16.223 10.2581 16.1315C10.3496 16.04 10.4737 15.9886 10.603 15.9886C10.7324 15.9886 10.8565 16.04 10.948 16.1315C11.0394 16.223 11.0908 16.3471 11.0908 16.4764V37.1219C11.0908 37.2513 11.0394 37.3753 10.948 37.4668C10.8565 37.5583 10.7324 37.6097 10.603 37.6097V37.6097Z" fill="white"/>
<path d="M19.7759 39.2074C19.6465 39.2074 19.5224 39.156 19.431 39.0645C19.3395 38.973 19.2881 38.8489 19.2881 38.7196V25.5089C19.2881 25.3795 19.3395 25.2555 19.431 25.164C19.5224 25.0725 19.6465 25.0211 19.7759 25.0211C19.9053 25.0211 20.0293 25.0725 20.1208 25.164C20.2123 25.2555 20.2637 25.3795 20.2637 25.5089V38.7196C20.2637 38.8489 20.2123 38.973 20.1208 39.0645C20.0293 39.156 19.9053 39.2074 19.7759 39.2074V39.2074Z" fill="white"/>
<path d="M40.3465 9.04553C39.4678 9.04657 38.6254 9.3961 38.004 10.0174C37.3827 10.6388 37.0332 11.4812 37.0322 12.3599V16.1078C37.0322 16.9868 37.3814 17.8298 38.003 18.4513C38.6245 19.0729 39.4675 19.422 40.3465 19.422C41.2255 19.422 42.0685 19.0729 42.69 18.4513C43.3116 17.8298 43.6607 16.9868 43.6607 16.1078V12.3597C43.6597 11.481 43.3102 10.6386 42.6888 10.0173C42.0675 9.39606 41.2251 9.04656 40.3465 9.04553V9.04553Z" fill="white"/>
<path d="M32.3925 11.6616C31.5138 11.6626 30.6714 12.012 30.05 12.6333C29.4287 13.2546 29.0792 14.0971 29.0781 14.9757V18.724C29.0838 19.5993 29.4355 20.4368 30.0564 21.0537C30.6774 21.6707 31.5171 22.0169 32.3925 22.0169C33.2678 22.0169 34.1075 21.6707 34.7285 21.0537C35.3494 20.4368 35.7011 19.5993 35.7068 18.724V14.9757C35.7058 14.0971 35.3562 13.2547 34.7349 12.6334C34.1136 12.0121 33.2712 11.6626 32.3925 11.6616V11.6616Z" fill="white"/>
<path d="M20.9791 5.78215C20.7422 5.27908 20.3745 4.84886 19.9145 4.53644C19.4544 4.22402 18.919 4.04085 18.364 4.00608C17.809 3.9713 17.2548 4.0862 16.7594 4.33876C16.264 4.59131 15.8455 4.97227 15.5476 5.44183C15.2497 5.91139 15.0834 6.45233 15.066 7.00814C15.0486 7.56395 15.1807 8.11423 15.4487 8.60151C15.7166 9.08879 16.1104 9.49519 16.5891 9.77826C17.0677 10.0613 17.6136 10.2107 18.1697 10.2107H22.372C22.7541 10.2107 23.1307 10.1207 23.4716 9.94805C23.8124 9.77539 24.1077 9.52491 24.3338 9.21689C24.5598 8.90886 24.7101 8.55194 24.7725 8.17502C24.8349 7.7981 24.8077 7.41178 24.6931 7.04733C24.5785 6.68288 24.3797 6.35054 24.1127 6.07722C23.8458 5.8039 23.5182 5.59727 23.1566 5.47408C22.7949 5.35088 22.4093 5.31458 22.0311 5.3681C21.6528 5.42162 21.2924 5.56346 20.9791 5.78215V5.78215Z" fill="white"/>
<path d="M43.7728 43.3159C18.0671 43.3673 7.9661 38.9034 4 35.3002V42.5366C4.00044 42.9246 4.15476 43.2966 4.42911 43.5709C4.70346 43.8453 5.07542 43.9996 5.4634 44H42.5363C42.7834 43.9998 43.0265 43.9369 43.2427 43.8172C43.4589 43.6976 43.6413 43.5251 43.7728 43.3159Z" fill="#76757B"/>
<path d="M38.9825 9.34033C38.4017 9.60309 37.9089 10.0276 37.5631 10.563C37.2172 11.0985 37.0329 11.7222 37.0322 12.3597V16.1078C37.032 16.8068 37.2528 17.4879 37.6631 18.0538C38.0735 18.6196 38.6523 19.0412 39.3167 19.2582C39.9812 19.4752 40.6972 19.4764 41.3624 19.2618C42.0276 19.0472 42.6079 18.6276 43.0202 18.0632C39.8539 15.9454 39.1331 11.661 38.9825 9.34033Z" fill="#F3F3F3"/>
<path d="M31.0284 11.9567C30.4476 12.2195 29.9549 12.644 29.609 13.1794C29.2632 13.7149 29.0789 14.3386 29.0781 14.976V18.7241C29.0778 19.4232 29.2987 20.1043 29.709 20.6702C30.1193 21.2361 30.6981 21.6577 31.3626 21.8747C32.0271 22.0917 32.7432 22.093 33.4084 21.8783C34.0737 21.6636 34.6539 21.244 35.0662 20.6795C31.9 18.5618 31.179 14.2775 31.0284 11.9567Z" fill="#F3F3F3"/>
<path d="M24.4885 8.97367C18.9429 8.94273 17.4891 5.90874 17.1106 4.18652C16.424 4.43562 15.8473 4.91872 15.4816 5.55092C15.116 6.18313 14.9849 6.92397 15.1114 7.64326C15.2378 8.36255 15.6138 9.01424 16.1731 9.48381C16.7325 9.95337 17.4395 10.2108 18.1698 10.2107H22.3721C22.8028 10.2102 23.2256 10.0955 23.5974 9.87814C23.9693 9.6608 24.2767 9.34869 24.4885 8.97367V8.97367Z" fill="#F3F3F3"/>
<path d="M43.8311 22.2503C43.6499 22.0914 43.6652 22.0393 40.8346 22.3061V19.3862C41.62 19.2684 42.337 18.8728 42.8556 18.2713C43.3742 17.6699 43.66 16.9024 43.6611 16.1082V12.3597C43.6611 11.4807 43.3119 10.6377 42.6903 10.0161C42.0688 9.39458 41.2258 9.0454 40.3468 9.0454C39.4678 9.0454 38.6248 9.39458 38.0032 10.0161C37.3817 10.6377 37.0325 11.4807 37.0325 12.3597V16.1078C37.0336 16.902 37.3193 17.6694 37.8379 18.2709C38.3565 18.8724 39.0736 19.2679 39.859 19.3858V22.427C37.4077 22.807 35.0635 23.5168 32.8809 24.6743V22.0021C33.6662 21.8841 34.3832 21.4885 34.9018 20.8871C35.4203 20.2856 35.706 19.5182 35.7071 18.7241V14.9758C35.7014 14.1005 35.3497 13.263 34.7288 12.6461C34.1078 12.0292 33.2681 11.6829 32.3928 11.6829C31.5175 11.6829 30.6777 12.0292 30.0567 12.6461C29.4358 13.263 29.0841 14.1005 29.0784 14.9758V18.7241C29.0795 19.5183 29.3653 20.2857 29.8839 20.8872C30.4026 21.4887 31.1196 21.8842 31.905 22.0021V25.2298C30.3589 26.1611 28.9632 27.3218 27.7657 28.6723C25.5199 31.225 23.067 33.7472 20.2633 35.1578V31.9985C22.8999 31.6806 24.4709 29.0079 25.1063 26.4376C25.9682 22.9533 24.7022 22.0075 23.8641 21.3818C23.3542 21.0009 23.2117 20.8712 23.3158 20.4247C23.8166 18.2774 23.4691 15.4992 20.8432 14.7364C20.1458 14.5334 19.405 14.5334 18.7076 14.7364C16.0816 15.4992 15.7344 18.2774 16.2352 20.4247C16.3564 20.9446 16.1255 21.0428 15.5134 21.5132C15.2843 21.1384 15.0338 20.7772 14.7631 20.4312C14.122 19.5848 13.8511 19.1855 14.1425 18.5892C14.8072 17.2296 15.789 13.4882 14.3769 11.2259C13.6264 10.0237 12.356 9.41404 10.6022 9.41404C8.84833 9.41404 7.57781 10.0237 6.82758 11.2259C5.41546 13.4879 6.39734 17.2296 7.062 18.5892C7.35343 19.1855 7.08235 19.5848 6.44138 20.4312C5.74312 21.3532 4.78675 22.6158 4.90104 24.7239C5.04459 27.366 7.6022 29.1614 10.1144 29.3551V31.1559C6.76012 30.679 4.41115 31.8218 4.26843 31.8935C4.18771 31.9341 4.11986 31.9964 4.07246 32.0733C4.02506 32.1503 3.99998 32.2389 4 32.3293V42.5366C4.00044 42.9246 4.15476 43.2965 4.42911 43.5709C4.70346 43.8452 5.07542 43.9996 5.4634 44H42.5363C42.9243 43.9996 43.2963 43.8452 43.5706 43.5709C43.845 43.2965 43.9993 42.9246 43.9997 42.5366V22.6204C43.9993 22.5503 43.9841 22.4811 43.955 22.4173C43.926 22.3535 43.8837 22.2966 43.8311 22.2503V22.2503ZM30.0539 18.7242V14.9758C30.0587 14.3587 30.3072 13.7684 30.7452 13.3337C31.1833 12.899 31.7755 12.6551 32.3926 12.6551C33.0098 12.6551 33.6019 12.899 34.04 13.3337C34.4781 13.7684 34.7266 14.3587 34.7314 14.9758V18.7241C34.7266 19.3412 34.4781 19.9315 34.04 20.3662C33.6019 20.8009 33.0098 21.0448 32.3926 21.0448C31.7755 21.0448 31.1833 20.8009 30.7452 20.3662C30.3072 19.9315 30.0587 19.3412 30.0539 18.7241V18.7242ZM31.731 38.4175C30.3576 38.3025 29.0922 38.1701 27.8938 37.9967C32.5177 36.3267 33.8125 33.8179 35.216 32.5519C37.3771 30.6019 40.4091 29.6373 43.0241 29.7195V42.2592C40.7323 40.4112 35.2969 38.716 31.731 38.4177V38.4175ZM38.0077 16.1078V12.3597C38.0077 11.7394 38.2541 11.1446 38.6927 10.706C39.1313 10.2674 39.7261 10.021 40.3464 10.021C40.9666 10.021 41.5615 10.2674 42.0001 10.706C42.4386 11.1446 42.685 11.7394 42.685 12.3597V16.1078C42.685 16.728 42.4386 17.3229 42.0001 17.7615C41.5615 18.2001 40.9666 18.4464 40.3464 18.4464C39.7261 18.4464 39.1313 18.2001 38.6927 17.7615C38.2541 17.3229 38.0077 16.728 38.0077 16.1078V16.1078ZM28.4986 29.3168C32.2312 25.0744 37.3589 23.4353 43.0241 23.1068V28.7441C40.1932 28.6642 36.9258 29.6953 34.5623 31.8278C33.5948 32.7007 32.7983 33.8515 31.8426 34.6507C30.0613 36.113 27.9569 37.1292 25.7041 37.6151C23.9755 37.2632 22.2867 36.7385 20.663 36.049C23.6297 34.5684 26.1763 31.9563 28.4986 29.3168ZM17.1856 20.2031C17.0395 19.5759 16.4391 16.4113 18.9802 15.6735C19.4999 15.5224 20.0518 15.5224 20.5715 15.6735C23.1128 16.4122 22.5123 19.5759 22.3661 20.2031C22.1125 21.291 22.7603 21.7748 23.2808 22.1635C24.024 22.7185 24.8661 23.3473 24.1597 26.2035C23.6399 28.3056 22.3854 30.6726 20.2637 31.0126V25.5088C20.2637 25.3795 20.2123 25.2554 20.1208 25.1639C20.0294 25.0724 19.9053 25.021 19.7759 25.021C19.6465 25.021 19.5225 25.0724 19.431 25.1639C19.3395 25.2554 19.2881 25.3795 19.2881 25.5088V31.0126C17.3698 30.705 16.1662 28.7342 15.5821 26.8733C16.0166 26.2372 16.2664 25.4932 16.3037 24.7238C16.3548 23.9368 16.2357 23.1481 15.9545 22.4113C16.5872 21.886 17.4809 21.4684 17.1856 20.2031V20.2031ZM5.87567 24.6708C5.78061 22.9199 6.54465 21.9112 7.21949 21.0204C7.8521 20.185 8.50617 19.3213 7.93893 18.1607C7.28193 16.8168 6.5243 13.5546 7.65558 11.7425C8.21586 10.8448 9.20749 10.3896 10.6026 10.3896C11.9977 10.3896 12.9895 10.8448 13.5499 11.7425C14.681 13.5544 13.9234 16.8169 13.2664 18.1607C12.6992 19.3213 13.3532 20.185 13.9859 21.0202C14.6603 21.9107 15.4246 22.9199 15.3295 24.6708C15.2165 26.7559 13.1113 28.1915 11.0904 28.3763V16.4764C11.0904 16.3471 11.039 16.223 10.9475 16.1315C10.856 16.04 10.732 15.9886 10.6026 15.9886C10.4732 15.9886 10.3492 16.04 10.2577 16.1315C10.1662 16.223 10.1148 16.3471 10.1148 16.4764V28.3764C8.08861 28.1908 5.9887 26.7548 5.87567 24.6708V24.6708ZM11.0904 29.3549C12.4895 29.2503 13.8121 28.676 14.8438 27.7253C15.6186 29.7973 17.0738 31.7317 19.2881 31.9985V35.4194C15.4753 33.5506 14.4777 32.11 11.0904 31.3365V29.3549ZM5.4634 43.0244C5.33403 43.0244 5.20996 42.973 5.11848 42.8815C5.027 42.79 4.9756 42.666 4.9756 42.5366V32.647C5.66187 32.37 7.57559 31.748 10.1148 32.1435V37.1219C10.1148 37.2512 10.1662 37.3753 10.2577 37.4668C10.3492 37.5583 10.4732 37.6097 10.6026 37.6097C10.732 37.6097 10.856 37.5583 10.9475 37.4668C11.039 37.3753 11.0904 37.2512 11.0904 37.1219V32.3397C14.2618 33.1316 15.2073 34.5799 19.2881 36.5051V38.7195C19.2881 38.8488 19.3395 38.9729 19.431 39.0644C19.5225 39.1559 19.6465 39.2073 19.7759 39.2073C19.9053 39.2073 20.0294 39.1559 20.1208 39.0644C20.2123 38.9729 20.2637 38.8488 20.2637 38.7195V36.9436C23.8215 38.4619 27.1839 39.0163 31.6496 39.3899C35.387 39.7026 40.4675 41.4427 42.4195 43.0244H5.4634ZM18.1699 10.2107H22.3723C22.7543 10.2107 23.131 10.1207 23.4718 9.94805C23.8126 9.77539 24.108 9.52491 24.334 9.21689C24.56 8.90886 24.7104 8.55194 24.7728 8.17502C24.8352 7.7981 24.808 7.41178 24.6934 7.04733C24.5788 6.68288 24.3799 6.35054 24.113 6.07722C23.846 5.8039 23.5185 5.59727 23.1568 5.47408C22.7952 5.35088 22.4096 5.31458 22.0313 5.3681C21.653 5.42162 21.2927 5.56346 20.9794 5.78215C20.7424 5.27908 20.3748 4.84886 19.9147 4.53644C19.4547 4.22402 18.9192 4.04085 18.3643 4.00608C17.8093 3.9713 17.2551 4.0862 16.7597 4.33876C16.2643 4.59131 15.8458 4.97227 15.5479 5.44183C15.25 5.91139 15.0837 6.45233 15.0662 7.00814C15.0488 7.56395 15.181 8.11423 15.4489 8.60151C15.7168 9.08879 16.1107 9.49519 16.5893 9.77826C17.068 10.0613 17.6139 10.2107 18.1699 10.2107V10.2107ZM18.1699 4.97588C18.6778 4.97378 19.1694 5.15438 19.5551 5.48471C19.9408 5.81504 20.1948 6.27307 20.2708 6.77517C20.286 6.87222 20.3302 6.96241 20.3975 7.03395C20.4648 7.10549 20.5521 7.15505 20.648 7.17613C20.744 7.19722 20.844 7.18885 20.9351 7.15212C21.0262 7.1154 21.1041 7.05202 21.1586 6.97029C21.9549 5.77588 23.8298 6.33713 23.8298 7.77712C23.8295 8.16362 23.6758 8.5342 23.4026 8.80754C23.1293 9.08088 22.7588 9.23464 22.3723 9.23509H18.1699C17.8903 9.23509 17.6133 9.18 17.355 9.07298C17.0966 8.96596 16.8618 8.80909 16.6641 8.61134C16.4663 8.41359 16.3095 8.17882 16.2024 7.92045C16.0954 7.66207 16.0403 7.38515 16.0403 7.10548C16.0403 6.82582 16.0954 6.5489 16.2024 6.29052C16.3095 6.03215 16.4663 5.79738 16.6641 5.59963C16.8618 5.40188 17.0966 5.24501 17.355 5.13799C17.6133 5.03097 17.8903 4.97588 18.1699 4.97588V4.97588Z" fill="#18332F"/>
</svg>
