<svg width="22" height="22" viewBox="0 0 22 22" fill="none" xmlns="http://www.w3.org/2000/svg">
<path fill-rule="evenodd" clip-rule="evenodd" d="M20.1667 11.0001C20.1667 16.0627 16.0626 20.1667 11 20.1667C5.93738 20.1667 1.83331 16.0627 1.83331 11.0001C1.83331 5.93744 5.93738 1.83337 11 1.83337C16.0626 1.83337 20.1667 5.93744 20.1667 11.0001ZM9.21244 14.0803C9.34077 14.2086 9.51494 14.2819 9.69827 14.2819C9.8816 14.2819 10.0558 14.2086 10.1841 14.0803L15.3816 8.88275C15.6474 8.61692 15.6474 8.17692 15.3816 7.91108C15.1158 7.64525 14.6758 7.64525 14.4099 7.91108L9.69827 12.6228L7.58993 10.5144C7.3241 10.2486 6.8841 10.2486 6.61827 10.5144C6.35243 10.7803 6.35243 11.2203 6.61827 11.4861L9.21244 14.0803Z" fill="white"/>
</svg>
