<svg width="24" height="24" viewBox="0 0 24 24" fill="none" xmlns="http://www.w3.org/2000/svg">
<g clip-path="url(#clip0_785_129425)">
<path d="M5.33334 2V22H17L22 17V2H5.33334Z" fill="#EFEEEE"/>
<path d="M17 17V22L22 17H17Z" fill="#ABABAB"/>
<path d="M12 22H17V17L12 22Z" fill="#DEDEDD"/>
<path d="M2 7V12.8333H15.3333V7H2Z" fill="#448E47"/>
<path d="M5.35 8.77663C5.28833 8.65747 5.17583 8.5983 5.0125 8.5983C4.9225 8.5983 4.84833 8.62247 4.79 8.67163C4.73167 8.71997 4.68583 8.79747 4.6525 8.9058C4.61917 9.01413 4.59583 9.1558 4.5825 9.33163C4.56833 9.50663 4.5625 9.7208 4.5625 9.97413C4.5625 10.2441 4.57167 10.4625 4.59 10.6291C4.6075 10.7958 4.63667 10.9241 4.675 11.0166C4.71333 11.1091 4.76167 11.1708 4.82 11.2016C4.87833 11.2333 4.94583 11.25 5.0225 11.25C5.08583 11.25 5.145 11.2391 5.2 11.2175C5.255 11.1958 5.3025 11.1525 5.3425 11.0875C5.38333 11.0225 5.415 10.9308 5.4375 10.8125C5.46083 10.6941 5.4725 10.5383 5.4725 10.345H6.19167C6.19167 10.5375 6.17667 10.7216 6.14667 10.895C6.11667 11.0683 6.06 11.22 5.97917 11.35C5.89667 11.4791 5.7825 11.5808 5.63417 11.6541C5.48583 11.7275 5.29333 11.765 5.05667 11.765C4.7875 11.765 4.57167 11.7208 4.4125 11.635C4.2525 11.5483 4.13 11.4233 4.045 11.26C3.96 11.0966 3.905 10.9016 3.88 10.675C3.85583 10.4491 3.8425 10.1983 3.8425 9.9258C3.8425 9.6558 3.85583 9.40663 3.88 9.1783C3.905 8.9508 3.96083 8.75413 4.045 8.5908C4.13083 8.4283 4.2525 8.29997 4.4125 8.2083C4.57167 8.11747 4.7875 8.0708 5.05667 8.0708C5.31417 8.0708 5.51583 8.11247 5.66417 8.1958C5.8125 8.27913 5.92333 8.38497 5.99583 8.5133C6.06833 8.64163 6.11583 8.77997 6.13333 8.9283C6.15167 9.07663 6.16083 9.2158 6.16083 9.3458H5.44167C5.44167 9.0833 5.41083 8.89413 5.35 8.77663Z" fill="white"/>
<path d="M7.68085 10.6984C7.68085 10.7817 7.68835 10.8575 7.70085 10.925C7.71501 10.9934 7.73918 11.0509 7.77585 11.0975C7.81251 11.145 7.86251 11.1817 7.92418 11.2084C7.98501 11.2342 8.06335 11.2484 8.15585 11.2484C8.26668 11.2484 8.36501 11.2125 8.45335 11.1409C8.54085 11.0692 8.58585 10.9575 8.58585 10.8084C8.58585 10.7284 8.57418 10.6592 8.55335 10.6009C8.53168 10.5425 8.49585 10.49 8.44585 10.4442C8.39501 10.3967 8.32918 10.355 8.24835 10.3167C8.16751 10.2784 8.06585 10.2392 7.94585 10.1992C7.78668 10.1459 7.64835 10.0867 7.53085 10.0234C7.41418 9.96086 7.31668 9.88669 7.23835 9.80086C7.16001 9.71586 7.10251 9.61753 7.06585 9.50586C7.02918 9.39336 7.01085 9.26503 7.01085 9.11753C7.01085 8.76419 7.10918 8.50169 7.30585 8.32836C7.50168 8.15503 7.77251 8.06836 8.11585 8.06836C8.27585 8.06836 8.42335 8.08586 8.55835 8.12086C8.69335 8.15586 8.81001 8.21169 8.90835 8.29086C9.00668 8.36919 9.08335 8.46919 9.13835 8.59003C9.19251 8.71169 9.22085 8.85753 9.22085 9.02753V9.12753H8.53168C8.53168 8.95753 8.50168 8.82669 8.44251 8.73419C8.38251 8.64336 8.28251 8.59669 8.14251 8.59669C8.06251 8.59669 7.99585 8.60919 7.94251 8.63169C7.89001 8.65503 7.84668 8.68586 7.81501 8.72419C7.78335 8.76253 7.76085 8.80836 7.74918 8.85836C7.73668 8.90836 7.73168 8.96003 7.73168 9.01336C7.73168 9.12419 7.75501 9.21586 7.80168 9.29086C7.84835 9.36669 7.94835 9.43586 8.10168 9.49836L8.65668 9.73836C8.79335 9.79836 8.90501 9.86086 8.99085 9.92669C9.07751 9.99169 9.14751 10.0617 9.19835 10.1367C9.25001 10.2117 9.28585 10.2934 9.30585 10.3842C9.32585 10.4734 9.33585 10.5742 9.33585 10.6834C9.33585 11.06 9.22668 11.3342 9.00835 11.5059C8.79001 11.6775 8.48585 11.7642 8.09585 11.7642C7.68918 11.7642 7.39835 11.6759 7.22251 11.4992C7.04751 11.3225 6.96085 11.0692 6.96085 10.7392V10.5942H7.68085V10.6984Z" fill="white"/>
<path d="M11.2367 10.7784H11.2525L11.7825 8.13843H12.5283L11.7083 11.7084H10.7833L9.96417 8.13843H10.7342L11.2367 10.7784Z" fill="white"/>
</g>
<defs>
<clipPath id="clip0_785_129425">
<rect width="20" height="20" fill="white" transform="translate(2 2)"/>
</clipPath>
</defs>
</svg>
