<svg width="29" height="28" viewBox="0 0 29 28" fill="none" xmlns="http://www.w3.org/2000/svg">
<path fill-rule="evenodd" clip-rule="evenodd" d="M14.5005 8.14331C12.8621 8.14331 11.5488 9.46482 11.5488 11.095C11.5488 12.6686 12.7781 13.9516 14.3356 14.0331C14.4429 14.0244 14.5573 14.0236 14.6684 14.033C16.2193 13.9501 17.442 12.6721 17.4522 11.0925C17.4508 9.46522 16.1281 8.14331 14.5005 8.14331ZM9.79883 11.095C9.79883 8.5018 11.8922 6.39331 14.5005 6.39331C17.0954 6.39331 19.2022 8.50006 19.2022 11.095V11.0999H19.2021C19.1879 13.6297 17.198 15.6983 14.6703 15.7845C14.619 15.7862 14.5676 15.7834 14.5168 15.7762C14.5218 15.7769 14.5228 15.7768 14.5195 15.7766C14.5165 15.7764 14.5115 15.7762 14.5049 15.7762C14.4905 15.7762 14.4773 15.7772 14.469 15.7782C14.4231 15.784 14.3769 15.786 14.3307 15.7845C11.8074 15.6984 9.79883 13.633 9.79883 11.095Z" fill="#00E4C9"/>
<path fill-rule="evenodd" clip-rule="evenodd" d="M9.18804 20.3274C8.28948 20.9326 7.78721 21.6251 7.5915 22.2833C9.46539 23.8525 11.8677 24.7916 14.5001 24.7916C17.1324 24.7916 19.5347 23.8525 21.4086 22.2833C21.2128 21.6248 20.7102 20.9319 19.8108 20.3265C18.3989 19.3821 16.479 18.8824 14.5088 18.8824C12.5394 18.8824 10.6128 19.3818 9.18804 20.3274ZM14.5088 17.1324C16.744 17.1324 19.0237 17.6942 20.785 18.8727L20.7869 18.874C22.19 19.8181 23.0827 21.0996 23.2335 22.5174C23.2629 22.7937 23.1593 23.0676 22.9543 23.2553C20.7228 25.2987 17.7608 26.5416 14.5001 26.5416C11.2393 26.5416 8.27733 25.2987 6.04579 23.2553C5.84085 23.0676 5.73724 22.7937 5.76664 22.5174C5.91746 21.0996 6.81013 19.8181 8.21324 18.874L8.21758 18.8711L8.21759 18.8711C9.98925 17.6943 12.2734 17.1324 14.5088 17.1324Z" fill="#00E4C9"/>
<path fill-rule="evenodd" clip-rule="evenodd" d="M14.5007 3.20837C8.54058 3.20837 3.70898 8.03997 3.70898 14C3.70898 19.9601 8.54058 24.7917 14.5007 24.7917C20.4607 24.7917 25.2923 19.9601 25.2923 14C25.2923 8.03997 20.4607 3.20837 14.5007 3.20837ZM1.95898 14C1.95898 7.07347 7.57408 1.45837 14.5007 1.45837C21.4272 1.45837 27.0423 7.07347 27.0423 14C27.0423 20.9266 21.4272 26.5417 14.5007 26.5417C7.57408 26.5417 1.95898 20.9266 1.95898 14Z" fill="#00E4C9"/>
</svg>
