<svg width="22" height="22" viewBox="0 0 22 22" fill="none" xmlns="http://www.w3.org/2000/svg">
<g clip-path="url(#clip0_1087_8371)">
<path d="M11 22C17.0751 22 22 17.0751 22 11C22 4.92487 17.0751 0 11 0C4.92487 0 0 4.92487 0 11C0 17.0751 4.92487 22 11 22Z" fill="white"/>
<path d="M22.0001 10.9999C22.0001 6.27028 19.015 2.2383 14.8262 0.684082V21.3157C19.015 19.7615 22.0001 15.7295 22.0001 10.9999Z" fill="#D80027"/>
<path d="M0 10.9999C0 15.7295 2.98517 19.7615 7.17393 21.3157V0.684082C2.98517 2.2383 0 6.27028 0 10.9999Z" fill="#0052B4"/>
</g>
<defs>
<clipPath id="clip0_1087_8371">
<rect width="22" height="22" fill="white"/>
</clipPath>
</defs>
</svg>
