<svg width="55" height="49" viewBox="0 0 55 49" fill="none" xmlns="http://www.w3.org/2000/svg">
<path d="M23.5893 3.28088L1.63477 41.213C1.23819 41.898 1.02937 42.6751 1.0293 43.4661C1.02922 44.2571 1.2379 45.0342 1.63435 45.7193C2.0308 46.4044 2.60105 46.9733 3.28777 47.3688C3.97449 47.7643 4.75348 47.9725 5.54643 47.9724H49.452C50.2449 47.9725 51.0239 47.7643 51.7106 47.3688C52.3974 46.9733 52.9676 46.4044 53.3641 45.7193C53.7605 45.0342 53.9692 44.2571 53.9691 43.4661C53.969 42.6751 53.7602 41.898 53.3636 41.213L31.4115 3.28088C31.0151 2.59602 30.445 2.0273 29.7584 1.63189C29.0719 1.23648 28.2931 1.02832 27.5004 1.02832C26.7076 1.02832 25.9289 1.23648 25.2423 1.63189C24.5558 2.0273 23.9857 2.59602 23.5893 3.28088Z" fill="#259B9C"/>
<path d="M27.7858 14.9802H27.2131C25.8032 14.9802 24.6602 16.1205 24.6602 17.5271V29.7005C24.6602 31.1071 25.8032 32.2473 27.2131 32.2473H27.7858C29.1958 32.2473 30.3388 31.1071 30.3388 29.7005V17.5271C30.3388 16.1205 29.1958 14.9802 27.7858 14.9802Z" fill="#FFF7ED"/>
<path d="M27.4995 41.902C29.0676 41.902 30.3388 40.6339 30.3388 39.0696C30.3388 37.5052 29.0676 36.2371 27.4995 36.2371C25.9314 36.2371 24.6602 37.5052 24.6602 39.0696C24.6602 40.6339 25.9314 41.902 27.4995 41.902Z" fill="#FFF7ED"/>
<path d="M54.2571 40.6988L32.3043 2.76674C31.8173 1.92553 31.117 1.227 30.2737 0.741336C29.4304 0.255676 28.4738 0 27.5 0C26.5262 0 25.5696 0.255676 24.7263 0.741336C23.883 1.227 23.1827 1.92553 22.6957 2.76674L15.9247 14.4635C15.857 14.5805 15.8131 14.7097 15.7954 14.8436C15.7777 14.9776 15.7867 15.1137 15.8218 15.2442C15.8568 15.3747 15.9173 15.497 15.9998 15.6042C16.0823 15.7114 16.1851 15.8013 16.3024 15.8689C16.4197 15.9364 16.5492 15.9802 16.6834 15.9978C16.8177 16.0155 16.9542 16.0065 17.085 15.9715C17.2158 15.9365 17.3384 15.8762 17.4458 15.7939C17.5533 15.7117 17.6434 15.6091 17.7111 15.4921L24.4816 3.79535C24.7875 3.26685 25.2275 2.82799 25.7574 2.52287C26.2872 2.21775 26.8882 2.05713 27.5 2.05713C28.1118 2.05713 28.7128 2.21775 29.2426 2.52287C29.7725 2.82799 30.2125 3.26685 30.5184 3.79535L52.4712 41.7275C52.777 42.256 52.9379 42.8556 52.9379 43.4659C52.9378 44.0762 52.7767 44.6757 52.4709 45.2042C52.165 45.7327 51.725 46.1716 51.1953 46.4768C50.6655 46.782 50.0645 46.9427 49.4528 46.9428H5.54722C4.93546 46.9427 4.33451 46.782 3.80473 46.4768C3.27496 46.1716 2.83503 45.7327 2.52914 45.2042C2.22326 44.6757 2.06219 44.0762 2.06213 43.4659C2.06206 42.8556 2.223 42.256 2.52878 41.7275L10.9012 27.2611C11.038 27.0248 11.075 26.744 11.0042 26.4804C10.9333 26.2168 10.7604 25.9921 10.5236 25.8557C10.2867 25.7193 10.0051 25.6824 9.74095 25.7531C9.47676 25.8237 9.25152 25.9962 9.11479 26.2325L0.742931 40.6988C0.256164 41.5402 -6.18127e-05 42.4945 1.11853e-08 43.4659C6.18351e-05 44.4373 0.256409 45.3915 0.743283 46.2328C1.23016 47.074 1.93041 47.7726 2.77366 48.2584C3.61692 48.7441 4.57348 48.9999 5.54722 49H49.4528C50.4265 48.9999 51.3831 48.7441 52.2263 48.2584C53.0696 47.7726 53.7698 47.074 54.2567 46.2328C54.7436 45.3915 54.9999 44.4373 55 43.4659C55.0001 42.4945 54.7438 41.5402 54.2571 40.6988V40.6988Z" fill="#18332F"/>
<path d="M12.7574 21.9952C12.8747 22.0628 13.0042 22.1067 13.1385 22.1244C13.2728 22.1421 13.4092 22.1332 13.5401 22.0982C13.6709 22.0632 13.7936 22.0028 13.901 21.9205C14.0084 21.8382 14.0985 21.7355 14.1662 21.6184L14.7094 20.678C14.7782 20.5609 14.8231 20.4315 14.8415 20.2971C14.8599 20.1627 14.8515 20.026 14.8167 19.8948C14.782 19.7637 14.7216 19.6407 14.639 19.5329C14.5564 19.4252 14.4532 19.3348 14.3354 19.267C14.2177 19.1991 14.0876 19.1552 13.9528 19.1377C13.8179 19.1202 13.681 19.1295 13.5497 19.1651C13.4185 19.2006 13.2956 19.2617 13.1882 19.3448C13.0807 19.4279 12.9908 19.5314 12.9235 19.6494L12.3803 20.5898C12.2436 20.8261 12.2066 21.1068 12.2773 21.3703C12.348 21.6339 12.5207 21.8586 12.7574 21.9952Z" fill="#18332F"/>
<path d="M27.787 33.276C28.7374 33.2749 29.6485 32.8978 30.3206 32.2274C30.9926 31.557 31.3706 30.648 31.3717 29.6999V17.5271C31.3706 16.5791 30.9926 15.6702 30.3205 14.9999C29.6485 14.3296 28.7374 13.9526 27.787 13.9517H27.2155C26.2652 13.9526 25.3541 14.3296 24.682 14.9999C24.01 15.6702 23.632 16.5791 23.6309 17.5271V29.6999C23.632 30.648 24.01 31.557 24.682 32.2274C25.354 32.8978 26.2651 33.2749 27.2155 33.276H27.787ZM25.693 29.6999V17.5271C25.6935 17.1245 25.8541 16.7385 26.1395 16.4539C26.4249 16.1692 26.8119 16.0092 27.2155 16.0089H27.787C28.1906 16.0092 28.5776 16.1692 28.863 16.4539C29.1485 16.7385 29.309 17.1245 29.3095 17.5271V29.6999C29.309 30.1026 29.1485 30.4886 28.8631 30.7734C28.5777 31.0581 28.1907 31.2183 27.787 31.2187H27.2155C26.8119 31.2183 26.4249 31.0581 26.1395 30.7734C25.8541 30.4886 25.6935 30.1026 25.693 29.6999Z" fill="#18332F"/>
<path d="M27.5013 42.9324C28.2668 42.9324 29.0151 42.706 29.6516 42.2817C30.2881 41.8574 30.7841 41.2544 31.0771 40.5489C31.37 39.8434 31.4467 39.067 31.2973 38.318C31.148 37.5691 30.7794 36.8811 30.2381 36.3411C29.6968 35.8011 29.0071 35.4334 28.2564 35.2844C27.5056 35.1354 26.7274 35.2119 26.0201 35.5041C25.3129 35.7964 24.7084 36.2912 24.2831 36.9262C23.8579 37.5611 23.6309 38.3077 23.6309 39.0713C23.6321 40.0949 24.0403 41.0763 24.7659 41.8001C25.4914 42.524 26.4752 42.9312 27.5013 42.9324V42.9324ZM27.5013 37.2674C27.8589 37.2674 28.2085 37.3732 28.5059 37.5714C28.8032 37.7696 29.035 38.0514 29.1719 38.381C29.3087 38.7106 29.3445 39.0733 29.2748 39.4232C29.205 39.7731 29.0328 40.0946 28.7799 40.3468C28.527 40.5991 28.2048 40.7709 27.854 40.8405C27.5033 40.9101 27.1397 40.8744 26.8093 40.7379C26.4789 40.6013 26.1965 40.3701 25.9978 40.0735C25.7991 39.7768 25.693 39.4281 25.693 39.0713C25.6932 38.5928 25.8837 38.1339 26.2227 37.7953C26.5617 37.4568 27.0216 37.2663 27.5013 37.2657V37.2674Z" fill="#18332F"/>
</svg>
