<svg width="122" height="132" viewBox="0 0 122 132" fill="none" xmlns="http://www.w3.org/2000/svg">
<rect x="0.25" y="54.0913" width="24" height="25.9639" rx="4" fill="white"/>
<path d="M8.284 73.0732H9.824L11.35 66.8852C11.518 66.0872 11.7 65.3452 11.868 64.5472H11.924C12.078 65.3452 12.246 66.0872 12.428 66.8852L13.968 73.0732H15.536L17.664 62.8112H16.418L15.326 68.4112C15.144 69.5032 14.948 70.6092 14.752 71.7292H14.682C14.43 70.6092 14.192 69.5032 13.94 68.4112L12.512 62.8112H11.336L9.922 68.4112C9.67 69.5032 9.418 70.6092 9.18 71.7292H9.124C8.914 70.6092 8.718 69.5032 8.508 68.4112L7.43 62.8112H6.1L8.284 73.0732Z" fill="#76757B"/>
<rect x="49" width="24" height="25.9639" rx="4" fill="#259B9C"/>
<path d="M56.774 18.9819H58.734V14.8379C58.734 13.6339 58.566 12.3319 58.468 11.2259H58.538L59.588 13.4379L62.584 18.9819H64.698V8.62193H62.724V12.7519C62.724 13.9279 62.892 15.3139 63.004 16.3919H62.934L61.884 14.1519L58.874 8.62193H56.774V18.9819Z" fill="white"/>
<rect x="49.25" y="106.036" width="24" height="25.9639" rx="4" fill="white"/>
<path d="M60.992 125.214C63.148 125.214 64.478 123.926 64.478 122.302C64.478 120.776 63.568 120.062 62.364 119.544L60.908 118.914C60.11 118.578 59.214 118.214 59.214 117.206C59.214 116.296 59.97 115.708 61.132 115.708C62.07 115.708 62.826 116.086 63.456 116.674L64.142 115.848C63.428 115.092 62.35 114.574 61.132 114.574C59.256 114.574 57.898 115.722 57.898 117.304C57.898 118.802 59.018 119.53 59.984 119.936L61.454 120.58C62.42 121 63.162 121.336 63.162 122.4C63.162 123.394 62.364 124.066 61.02 124.066C59.956 124.066 58.92 123.576 58.178 122.792L57.408 123.688C58.304 124.626 59.55 125.214 60.992 125.214Z" fill="#76757B"/>
<rect x="97.75" y="53.2461" width="24" height="25.9639" rx="4" fill="white"/>
<path d="M106.65 72.228H112.712V71.136H107.952V67.384H111.83V66.278H107.952V63.058H112.558V61.966H106.65V72.228Z" fill="#76757B"/>
<rect x="92.25" y="9" width="24" height="25.9639" rx="4" fill="white"/>
<path d="M96.15 27.9819H97.382V22.6059C97.382 21.5139 97.284 20.4359 97.214 19.3999H97.284L98.39 21.5139L102.114 27.9819H103.458V17.7199H102.212V23.0539C102.212 24.1179 102.31 25.2799 102.394 26.3159H102.324L101.218 24.1879L97.48 17.7199H96.15V27.9819ZM106.517 27.9819H112.579V26.8899H107.819V23.1379H111.697V22.0319H107.819V18.8119H112.425V17.7199H106.517V27.9819Z" fill="#76757B"/>
<rect x="92.25" y="98" width="24" height="25.9639" rx="4" fill="white"/>
<path d="M99.992 117.178C102.148 117.178 103.478 115.89 103.478 114.266C103.478 112.74 102.568 112.026 101.364 111.508L99.908 110.878C99.11 110.542 98.214 110.178 98.214 109.17C98.214 108.26 98.97 107.672 100.132 107.672C101.07 107.672 101.826 108.05 102.456 108.638L103.142 107.812C102.428 107.056 101.35 106.538 100.132 106.538C98.256 106.538 96.898 107.686 96.898 109.268C96.898 110.766 98.018 111.494 98.984 111.9L100.454 112.544C101.42 112.964 102.162 113.3 102.162 114.364C102.162 115.358 101.364 116.03 100.02 116.03C98.956 116.03 97.92 115.54 97.178 114.756L96.408 115.652C97.304 116.59 98.55 117.178 99.992 117.178ZM105.74 116.982H111.802V115.89H107.042V112.138H110.92V111.032H107.042V107.812H111.648V106.72H105.74V116.982Z" fill="#76757B"/>
<rect x="6.25" y="9" width="24" height="25.9639" rx="4" fill="white"/>
<path d="M8.15 27.9819H9.382V22.6059C9.382 21.5139 9.284 20.4359 9.214 19.3999H9.284L10.39 21.5139L14.114 27.9819H15.458V17.7199H14.212V23.0539C14.212 24.1179 14.31 25.2799 14.394 26.3159H14.324L13.218 24.1879L9.48 17.7199H8.15V27.9819ZM19.6512 27.9819H21.1912L22.7172 21.7939C22.8852 20.9959 23.0672 20.2539 23.2352 19.4559H23.2912C23.4452 20.2539 23.6132 20.9959 23.7952 21.7939L25.3352 27.9819H26.9032L29.0312 17.7199H27.7852L26.6932 23.3199C26.5112 24.4119 26.3152 25.5179 26.1192 26.6379H26.0492C25.7972 25.5179 25.5592 24.4119 25.3072 23.3199L23.8792 17.7199H22.7032L21.2892 23.3199C21.0372 24.4119 20.7852 25.5179 20.5472 26.6379H20.4912C20.2812 25.5179 20.0852 24.4119 19.8752 23.3199L18.7972 17.7199H17.4672L19.6512 27.9819Z" fill="#76757B"/>
<rect x="6.25" y="98" width="24" height="25.9639" rx="4" fill="white"/>
<path d="M11.992 117.178C14.148 117.178 15.478 115.89 15.478 114.266C15.478 112.74 14.568 112.026 13.364 111.508L11.908 110.878C11.11 110.542 10.214 110.178 10.214 109.17C10.214 108.26 10.97 107.672 12.132 107.672C13.07 107.672 13.826 108.05 14.456 108.638L15.142 107.812C14.428 107.056 13.35 106.538 12.132 106.538C10.256 106.538 8.898 107.686 8.898 109.268C8.898 110.766 10.018 111.494 10.984 111.9L12.454 112.544C13.42 112.964 14.162 113.3 14.162 114.364C14.162 115.358 13.364 116.03 12.02 116.03C10.956 116.03 9.92 115.54 9.178 114.756L8.408 115.652C9.304 116.59 10.55 117.178 11.992 117.178ZM18.8738 116.982H20.4138L21.9398 110.794C22.1078 109.996 22.2898 109.254 22.4578 108.456H22.5138C22.6678 109.254 22.8358 109.996 23.0178 110.794L24.5578 116.982H26.1258L28.2538 106.72H27.0078L25.9158 112.32C25.7338 113.412 25.5378 114.518 25.3418 115.638H25.2718C25.0198 114.518 24.7818 113.412 24.5298 112.32L23.1018 106.72H21.9258L20.5118 112.32C20.2598 113.412 20.0078 114.518 19.7698 115.638H19.7138C19.5038 114.518 19.3078 113.412 19.0978 112.32L18.0198 106.72H16.6898L18.8738 116.982Z" fill="#76757B"/>
<g clip-path="url(#clip0_785_129113)">
<path d="M91.5827 66.4839C83.3507 67.586 75.1186 68.6881 66.7007 69.8146C69.4576 73.4164 72.1255 76.9012 74.7934 80.3874L74.6991 80.5004C71.2143 77.8608 67.7307 75.2211 64.1568 72.5146C63.0352 80.8434 61.9277 89.0681 60.8203 97.2941L60.6784 97.3044C59.5709 89.0797 58.4635 80.855 57.3393 72.5146C53.7654 75.2237 50.2793 77.8646 46.7931 80.5056L46.6886 80.4118C49.3577 76.9192 52.0281 73.4254 54.7889 69.8133C46.3956 68.6907 38.1622 67.5886 29.9289 66.4864L29.916 66.3387C38.1442 65.2366 46.3723 64.1345 54.7231 63.017C52.001 59.4666 49.3461 56.0023 46.6911 52.5393L46.7879 52.4314C50.2689 55.0685 53.7486 57.7043 57.3329 60.4197C58.4532 52.0974 59.5619 43.8688 60.6693 35.6403L60.8281 35.6377C61.9355 43.8675 63.0429 52.0974 64.1632 60.421C67.7346 57.7145 71.2143 55.0774 74.694 52.4391L74.8063 52.5341C72.15 55.9997 69.4938 59.4666 66.773 63.017C75.1173 64.1332 83.3494 65.2353 91.5814 66.3362C91.5814 66.385 91.5814 66.4351 91.5814 66.4839H91.5827ZM60.7713 66.6701V94.3641C61.0243 92.991 61.1921 91.6089 61.3779 90.2306C62.2672 83.6372 63.1629 77.0438 64.0432 70.4492C64.0703 70.2449 64.0161 69.9546 63.8819 69.8146C62.8996 68.7883 61.8864 67.7902 60.7713 66.6701ZM60.7248 66.1294V38.5445C60.6822 38.6113 60.6487 38.6409 60.6448 38.6756C59.5735 46.5933 58.5035 54.5123 57.4465 62.4313C57.4219 62.6149 57.4904 62.8757 57.6155 63.0054C58.6042 64.0266 59.6174 65.0234 60.7248 66.1294ZM60.4809 66.4351H32.8794C33.6151 66.5969 34.3573 66.6881 35.0981 66.7883C42.2989 67.7568 49.4984 68.7292 56.7004 69.6887C56.8915 69.7144 57.1638 69.6784 57.2903 69.559C58.3332 68.5673 59.3502 67.5487 60.4809 66.4363V66.4351ZM88.6722 66.3875C88.5973 66.3426 88.5676 66.3105 88.5328 66.3053C81.0739 65.3086 73.6098 64.3554 66.1625 63.2829C64.8137 63.0889 63.8883 63.306 63.0442 64.3593C62.4789 65.0645 61.7251 65.6207 61.0552 66.2437L61.183 66.3875H88.6722ZM72.9141 54.1398C72.9206 54.1372 72.8612 54.1398 72.8225 54.168C70.032 56.2797 67.2415 58.3928 64.4575 60.5122C64.3478 60.5957 64.2213 60.7652 64.2329 60.8821C64.2871 61.4525 64.3852 62.0189 64.4588 62.5186C67.2983 59.7042 70.1211 56.9079 72.9141 54.1385V54.1398ZM48.0722 78.9102L48.2374 79.1055C51.175 76.8768 54.1139 74.6495 57.0489 72.417C57.1483 72.3412 57.2774 72.2025 57.2684 72.1036C57.209 71.4768 57.1148 70.8525 57.0593 70.4312C54.092 73.2301 51.0821 76.0702 48.0735 78.9102H48.0722ZM73.211 78.5544L73.0845 78.6803C73.0858 78.6456 73.1039 78.5981 73.0871 78.5762C70.9419 75.7311 68.7942 72.8859 66.6401 70.0471C66.5691 69.9546 66.4129 69.8596 66.3071 69.8711C65.734 69.9328 65.1648 70.0266 64.593 70.11C64.5517 70.1794 64.5104 70.2488 64.4691 70.3169C67.3835 73.0631 70.2966 75.8081 73.211 78.5544ZM56.8011 62.7434C53.9448 59.9008 51.095 57.0659 48.2451 54.2297C48.3703 54.3132 48.4529 54.4429 48.5471 54.5649C50.3348 56.895 52.2063 59.1686 53.879 61.5783C54.6844 62.7395 55.5169 63.1737 56.8308 62.7267C56.8476 62.7216 56.8618 62.7087 56.8024 62.7434H56.8011Z" fill="black"/>
<path d="M57.8096 44.8348C58.0406 45.382 57.7786 45.4385 57.4095 45.4989C52.7488 46.2683 48.7115 48.2837 45.4925 51.7249C42.4801 54.9464 40.4963 58.7319 39.829 63.1287C39.7657 63.5501 39.6341 63.6926 39.1875 63.4935C39.7515 58.9053 41.7482 54.958 44.8149 51.5797C48.2791 47.7609 52.6778 45.5849 57.8109 44.8335L57.8096 44.8348Z" fill="black"/>
<path d="M39.2207 69.2996C39.6505 69.139 39.7628 69.2867 39.8299 69.6747C41.149 77.3278 45.3967 82.7574 52.5187 85.8941C54.074 86.5788 55.8009 86.8871 57.4621 87.3174C57.8789 87.4253 58.0145 87.5357 57.8312 87.9249C48.089 86.9025 40.0971 78.4684 39.2207 69.2983V69.2996Z" fill="black"/>
<path d="M63.6912 87.9878C63.4744 87.4971 63.6499 87.4021 64.059 87.3224C72.9351 85.5973 78.6774 80.4246 81.2485 71.7978C81.455 71.1029 81.5673 70.3772 81.6692 69.6579C81.7273 69.2494 81.8822 69.1466 82.312 69.32C81.7764 73.654 80.0456 77.4651 77.1557 80.7444C73.5831 84.7996 69.0811 87.1811 63.6925 87.9865L63.6912 87.9878Z" fill="black"/>
<path d="M82.3345 63.4974C81.9111 63.6579 81.7369 63.6078 81.6698 63.1801C81.0347 59.1069 79.2871 55.563 76.5999 52.4288C73.2661 48.5406 69.0171 46.3492 64.0144 45.4924C63.6065 45.4231 63.502 45.2831 63.6775 44.8438C67.9949 45.4398 71.8424 47.1135 75.0782 50.0203C79.0897 53.6234 81.5329 58.1089 82.3345 63.4974Z" fill="black"/>
<path d="M60.7695 66.6702C61.886 67.7903 62.8979 68.7883 63.8801 69.8146C64.013 69.9547 64.0685 70.2437 64.0414 70.4492C63.1612 77.0439 62.2654 83.6372 61.3762 90.2306C61.1903 91.6102 61.0212 92.991 60.7695 94.3642V66.6702Z" fill="white"/>
<path d="M60.7247 66.1292C59.6173 65.022 58.6041 64.0252 57.6154 63.0053C57.4902 62.8756 57.4218 62.6148 57.4463 62.4311C58.5034 54.5109 59.5747 46.5932 60.6447 38.6755C60.6498 38.6421 60.6821 38.6112 60.7247 38.5444V66.1292Z" fill="white"/>
<path d="M60.4803 66.4351C59.351 67.5475 58.3339 68.5661 57.2898 69.5578C57.1633 69.6772 56.8909 69.7132 56.6999 69.6875C49.4979 68.728 42.2984 67.7556 35.0976 66.7871C34.3567 66.6869 33.6146 66.5957 32.8789 66.4338H60.4803V66.4351Z" fill="white"/>
<path d="M88.6716 66.3875H61.1825L61.0547 66.2437C61.7246 65.6207 62.4783 65.0645 63.0436 64.3593C63.8878 63.306 64.8145 63.0889 66.162 63.2829C73.6092 64.3554 81.0733 65.3098 88.5322 66.3053C88.5658 66.3105 88.5968 66.3426 88.6716 66.3875Z" fill="white"/>
<path d="M72.9144 54.1396C70.1213 56.9078 67.2986 59.7054 64.459 62.5198C64.3868 62.0201 64.2874 61.4536 64.2332 60.8833C64.2216 60.7664 64.348 60.5982 64.4577 60.5134C67.2418 58.3927 70.0322 56.2809 72.8227 54.1692C72.8614 54.1396 72.9208 54.1384 72.9144 54.1409V54.1396Z" fill="white"/>
<path d="M48.0716 78.9102C51.0815 76.0701 54.0914 73.2314 57.0574 70.4312C57.1129 70.8525 57.2071 71.4767 57.2665 72.1036C57.2755 72.2012 57.1465 72.3412 57.0471 72.417C54.112 74.6495 51.1731 76.8781 48.2355 79.1054L48.0703 78.9102H48.0716Z" fill="white"/>
<path d="M73.2106 78.5543C70.2962 75.8081 67.3831 73.0631 64.4688 70.3168C64.5101 70.2474 64.5514 70.1781 64.5927 70.11C65.1631 70.0265 65.7336 69.9327 66.3067 69.8711C66.4125 69.8595 66.57 69.9546 66.6397 70.0471C68.7939 72.8858 70.9416 75.731 73.0867 78.5762C73.1035 78.598 73.0867 78.6443 73.0841 78.6802L73.2106 78.5543Z" fill="white"/>
<path d="M56.8014 62.7435C56.8608 62.7088 56.8466 62.7203 56.8298 62.7268C55.5172 63.1738 54.6847 62.7396 53.878 61.5784C52.2053 59.1687 50.3351 56.8951 48.5462 54.565C48.4532 54.443 48.3706 54.3132 48.2441 54.2297C51.094 57.0659 53.9438 59.9008 56.8001 62.7435H56.8014Z" fill="white"/>
</g>
<defs>
<clipPath id="clip0_785_129113">
<rect width="61.6667" height="61.6667" fill="white" transform="translate(29.916 35.6377)"/>
</clipPath>
</defs>
</svg>
