<svg width="29" height="28" viewBox="0 0 29 28" fill="none" xmlns="http://www.w3.org/2000/svg">
<path fill-rule="evenodd" clip-rule="evenodd" d="M2.83398 1.45837C3.31723 1.45837 3.70898 1.85012 3.70898 2.33337V22.1667C3.70898 23.6201 4.88057 24.7917 6.33398 24.7917H26.1673C26.6506 24.7917 27.0423 25.1835 27.0423 25.6667C27.0423 26.15 26.6506 26.5417 26.1673 26.5417H6.33398C3.91407 26.5417 1.95898 24.5866 1.95898 22.1667V2.33337C1.95898 1.85012 2.35074 1.45837 2.83398 1.45837Z" fill="#00E4C9"/>
<path fill-rule="evenodd" clip-rule="evenodd" d="M25.5699 7.50212C25.9369 7.8165 25.9796 8.36887 25.6652 8.73588L20.2985 15.0009L20.2962 15.0036C19.0782 16.4139 16.9141 16.4959 15.5969 15.1787L14.4849 14.0666C13.8948 13.4694 12.9124 13.5035 12.3523 14.1507C12.3519 14.1511 12.3516 14.1515 12.3512 14.1519L6.99861 20.4024C6.68429 20.7695 6.13192 20.8122 5.76486 20.4979C5.39781 20.1836 5.35506 19.6312 5.66939 19.2642L11.0244 13.0109L11.0268 13.0081C12.2395 11.6039 14.4046 11.4977 15.7278 12.8346C15.7284 12.8353 15.7291 12.836 15.7298 12.8367L16.8344 13.9413C17.4302 14.5371 18.4153 14.5028 18.9708 13.8608C18.9712 13.8604 18.9715 13.8601 18.9718 13.8597L24.3361 7.5974C24.6505 7.2304 25.2029 7.18774 25.5699 7.50212Z" fill="#00E4C9"/>
</svg>
