<svg width="44" height="44" viewBox="0 0 44 44" fill="none" xmlns="http://www.w3.org/2000/svg">
<rect width="44" height="44" rx="22" fill="#F4FAFA"/>
<path fill-rule="evenodd" clip-rule="evenodd" d="M13.3716 13.9014C12.979 14.294 12.75 15.049 12.75 16.7398V22.7398C12.75 24.4306 12.979 25.1856 13.3716 25.5782C13.7642 25.9708 14.5192 26.1998 16.21 26.1998H20C20.4142 26.1998 20.75 26.5356 20.75 26.9498C20.75 27.364 20.4142 27.6998 20 27.6998H16.21C14.5308 27.6998 13.1808 27.5088 12.3109 26.6389C11.441 25.769 11.25 24.419 11.25 22.7398V16.7398C11.25 15.0606 11.441 13.7106 12.3109 12.8407C13.1808 11.9708 14.5308 11.7798 16.21 11.7798H26.74C28.4192 11.7798 29.7692 11.9708 30.6391 12.8407C31.509 13.7106 31.7 15.0606 31.7 16.7398C31.7 17.154 31.3642 17.4898 30.95 17.4898C30.5358 17.4898 30.2 17.154 30.2 16.7398C30.2 15.049 29.971 14.294 29.5784 13.9014C29.1858 13.5088 28.4308 13.2798 26.74 13.2798H16.21C14.5192 13.2798 13.7642 13.5088 13.3716 13.9014Z" fill="#259B9C"/>
<path fill-rule="evenodd" clip-rule="evenodd" d="M20 26.1997C20.4142 26.1997 20.75 26.5355 20.75 26.9497V31.4697C20.75 31.8839 20.4142 32.2197 20 32.2197C19.5858 32.2197 19.25 31.8839 19.25 31.4697V26.9497C19.25 26.5355 19.5858 26.1997 20 26.1997Z" fill="#259B9C"/>
<path fill-rule="evenodd" clip-rule="evenodd" d="M11.25 22.9497C11.25 22.5355 11.5858 22.1997 12 22.1997H20C20.4142 22.1997 20.75 22.5355 20.75 22.9497C20.75 23.3639 20.4142 23.6997 20 23.6997H12C11.5858 23.6997 11.25 23.3639 11.25 22.9497Z" fill="#259B9C"/>
<path fill-rule="evenodd" clip-rule="evenodd" d="M15.9902 31.4697C15.9902 31.0555 16.326 30.7197 16.7402 30.7197H20.0002C20.4144 30.7197 20.7502 31.0555 20.7502 31.4697C20.7502 31.8839 20.4144 32.2197 20.0002 32.2197H16.7402C16.326 32.2197 15.9902 31.8839 15.9902 31.4697Z" fill="#259B9C"/>
<path fill-rule="evenodd" clip-rule="evenodd" d="M23.6509 20.9614C23.4458 21.1665 23.2793 21.6088 23.2793 22.7998V28.5098C23.2793 29.7008 23.4458 30.1432 23.6509 30.3483C23.8559 30.5533 24.2983 30.7198 25.4893 30.7198H29.0393C30.2303 30.7198 30.6727 30.5533 30.8777 30.3483C31.0828 30.1432 31.2493 29.7008 31.2493 28.5098V22.7998C31.2493 21.6088 31.0828 21.1665 30.8777 20.9614C30.6727 20.7564 30.2303 20.5898 29.0393 20.5898H25.4893C24.2983 20.5898 23.8559 20.7564 23.6509 20.9614ZM22.5902 19.9008C23.2727 19.2183 24.3103 19.0898 25.4893 19.0898H29.0393C30.2183 19.0898 31.2559 19.2183 31.9384 19.9008C32.6208 20.5832 32.7493 21.6208 32.7493 22.7998V28.5098C32.7493 29.6888 32.6208 30.7265 31.9384 31.4089C31.2559 32.0914 30.2183 32.2198 29.0393 32.2198H25.4893C24.3103 32.2198 23.2727 32.0914 22.5902 31.4089C21.9078 30.7265 21.7793 29.6888 21.7793 28.5098V22.7998C21.7793 21.6208 21.9078 20.5832 22.5902 19.9008Z" fill="#259B9C"/>
<path fill-rule="evenodd" clip-rule="evenodd" d="M26.2441 28.25C26.2441 27.6977 26.6919 27.25 27.2441 27.25H27.2531C27.8054 27.25 28.2531 27.6977 28.2531 28.25C28.2531 28.8023 27.8054 29.25 27.2531 29.25H27.2441C26.6919 29.25 26.2441 28.8023 26.2441 28.25Z" fill="#259B9C"/>
</svg>
