<svg width="116" height="116" viewBox="0 0 116 116" fill="none" xmlns="http://www.w3.org/2000/svg">
<rect x="0.5" y="0.5" width="115" height="115" rx="57.5" fill="#F4FAFA"/>
<path d="M88.5 52.5044V82.7658C88.5 83.3971 88.3341 83.9896 88.0409 84.5011C87.7291 85.0525 87.27 85.5116 86.7174 85.8234C86.2059 86.1141 85.6158 86.28 84.9858 86.28H30.0142C29.3842 86.28 28.7941 86.1141 28.2827 85.8234C27.73 85.5116 27.2709 85.0525 26.9591 84.5011C26.6659 83.9896 26.5 83.3971 26.5 82.7658V52.5044C26.5 51.5201 26.9042 50.6306 27.5566 49.9932H87.4434C88.0958 50.6306 88.5 51.5201 88.5 52.5044Z" fill="#0593FC"/>
<path d="M88.0412 84.5009C87.7294 85.0523 87.2703 85.5114 86.7177 85.8233L68.704 67.8345C68.3385 67.469 68.3385 66.8777 68.7027 66.511C69.0682 66.1454 69.6608 66.1454 70.0263 66.511L88.0412 84.5009Z" fill="#0181FA"/>
<path d="M46.2982 67.8345L28.2845 85.8233C27.7319 85.5114 27.2728 85.0523 26.9609 84.5009L44.9759 66.511C45.3414 66.1454 45.9339 66.1454 46.2995 66.511C46.6637 66.8777 46.6637 67.469 46.2982 67.8345Z" fill="#0181FA"/>
<path d="M87.444 49.9934H84.6255C85.278 50.6309 85.6821 51.5203 85.6821 52.5046V82.7661C85.6821 84.7072 84.1091 86.2803 82.168 86.2803H84.9864C86.9275 86.2803 88.5006 84.7072 88.5006 82.7661V52.5046C88.5006 51.5203 88.0964 50.6309 87.444 49.9934Z" fill="#0181FA"/>
<path d="M87.4415 49.9935L62.2685 73.9127C59.5951 76.4526 55.401 76.4526 52.7277 73.9127L27.5547 49.9935C28.1884 49.3722 29.0554 48.9905 30.0122 48.9905H84.9839C85.9407 48.9905 86.8077 49.3722 87.4415 49.9935Z" fill="#EAF6FF"/>
<path d="M69.5667 48.9905C68.0473 55.813 61.9595 60.9127 54.6805 60.9127C47.4001 60.9127 41.3124 55.813 39.793 48.9905H69.5667Z" fill="#C8EFFE"/>
<path d="M84.9848 48.9905H82.1664C82.5957 48.9905 83.0067 49.0673 83.3869 49.208C84.0721 49.4618 84.242 50.3563 83.7123 50.8597L59.4509 73.9127C58.4821 74.8331 57.3133 75.4182 56.0898 75.6716C58.2425 76.1173 60.5649 75.5321 62.2695 73.9127L87.4425 49.9935C86.8087 49.3722 85.9417 48.9905 84.9848 48.9905Z" fill="#C8EFFE"/>
<path d="M58.5936 80.9235H56.4064C55.1809 80.9235 54.1875 79.93 54.1875 78.7046V71.5485C54.1875 70.323 55.181 69.3296 56.4064 69.3296H58.5936C59.8191 69.3296 60.8125 70.3231 60.8125 71.5485V78.7046C60.8125 79.93 59.819 80.9235 58.5936 80.9235Z" fill="#99E6FC"/>
<path d="M60.8136 71.5489V78.7044C60.8136 79.9295 59.8206 80.9237 58.5956 80.9237H57.005C57.6013 80.5283 57.9955 79.8496 57.9955 79.0787V71.2994C57.9955 70.4399 57.5078 69.6964 56.793 69.3296H58.5956C59.8206 69.3296 60.8136 70.3226 60.8136 71.5489Z" fill="#62DBFB"/>
<path d="M57.4988 60.9125C65.9227 60.9125 72.7516 54.0836 72.7516 45.6597C72.7516 37.2359 65.9227 30.407 57.4988 30.407C49.075 30.407 42.2461 37.2359 42.2461 45.6597C42.2461 54.0836 49.075 60.9125 57.4988 60.9125Z" fill="#4FC123"/>
<path d="M57.4991 30.407C57.0238 30.407 56.554 30.4298 56.0898 30.4724C63.8529 31.1837 69.9333 37.7111 69.9333 45.6597C69.9333 53.6083 63.8528 60.1358 56.0898 60.8471C56.554 60.8897 57.0238 60.9125 57.4991 60.9125C65.923 60.9125 72.7519 54.0836 72.7519 45.6597C72.7519 37.2358 65.923 30.407 57.4991 30.407Z" fill="#47A920"/>
<path d="M55.2948 45.2927L53.1132 43.1111C52.5567 42.5546 51.6543 42.5546 51.0978 43.1111L49.2064 45.0024C48.6499 45.5589 48.6499 46.4613 49.2064 47.0178L54.052 51.8634C55.0563 52.8676 56.6845 52.8676 57.6887 51.8634L67.164 42.3881C67.7205 41.8316 67.7205 40.9292 67.164 40.3727L65.4123 38.621C64.8558 38.0645 63.9533 38.0645 63.3968 38.621L56.725 45.2928C56.3301 45.6876 55.6897 45.6876 55.2948 45.2927Z" fill="#D1F19E"/>
<path d="M67.1646 40.3727L65.4129 38.621C64.8564 38.0645 63.954 38.0645 63.3975 38.621L62.8151 39.2033C63.085 39.2553 63.3428 39.3858 63.5518 39.5948L64.3463 40.3727C64.9028 40.9292 64.9028 41.8316 64.3463 42.3881L56.0907 50.3728C55.236 51.2275 53.9307 51.3519 52.9414 50.752L54.0528 51.8634C55.057 52.8676 56.6852 52.8676 57.6895 51.8634L67.1647 42.3881C67.7212 41.8315 67.7212 40.9292 67.1646 40.3727Z" fill="#BBEC6C"/>
</svg>
