<svg width="37" height="40" viewBox="0 0 37 40" fill="none" xmlns="http://www.w3.org/2000/svg">
<path fill-rule="evenodd" clip-rule="evenodd" d="M27.2614 17.3157V9.74579C27.2614 9.52911 27.1613 9.32892 27.0197 9.17053L18.5327 0.258484C18.3743 0.0918579 18.1491 0 17.9242 0H4.46838C1.98425 0 0 2.02576 0 4.51019V29.9542C0 32.4387 1.98425 34.4312 4.46838 34.4312H15.0897C17.0987 37.7658 20.7504 40 24.9103 40C31.2296 40 36.3901 34.8645 36.3901 28.537C36.3986 23.0096 32.4301 18.3911 27.2614 17.3157ZM18.7579 2.92633L24.4519 8.92029H20.7587C19.6582 8.92029 18.7579 8.01178 18.7579 6.91132V2.92633ZM4.46838 32.7637C2.90955 32.7637 1.66748 31.5131 1.66748 29.9542V4.51019C1.66748 2.94281 2.90955 1.66748 4.46838 1.66748H17.0905V6.91132C17.0905 8.93707 18.7329 10.5878 20.7587 10.5878H25.5939V17.0987C25.485 17.0951 25.3856 17.0883 25.2902 17.0818L25.2901 17.0818L25.2901 17.0818C25.1664 17.0734 25.0493 17.0654 24.9271 17.0654C22.0175 17.0654 19.3414 18.1827 17.3239 19.9335H6.73615C6.27747 19.9335 5.9024 20.3085 5.9024 20.7669C5.9024 21.2256 6.27747 21.6006 6.73615 21.6006H15.7733C15.1813 22.4344 14.6893 23.2681 14.306 24.1852H6.73615C6.27747 24.1852 5.9024 24.5602 5.9024 25.0189C5.9024 25.4773 6.27747 25.8527 6.73615 25.8527H13.764C13.5556 26.6864 13.4473 27.6117 13.4473 28.537C13.4473 30.0375 13.739 31.5216 14.2642 32.7722H4.46838V32.7637ZM24.9188 38.3411C19.5166 38.3411 15.123 33.9474 15.123 28.5452C15.123 23.143 19.5081 18.7494 24.9188 18.7494C30.3293 18.7494 34.7144 23.143 34.7144 28.5452C34.7144 33.9474 30.321 38.3411 24.9188 38.3411ZM6.73614 17.424H15.1813C15.6399 17.424 16.015 17.0486 16.015 16.5902C16.015 16.1316 15.6399 15.7565 15.1813 15.7565H6.73614C6.27746 15.7565 5.9024 16.1316 5.9024 16.5902C5.9024 17.0486 6.27746 17.424 6.73614 17.424ZM24.902 22.1258C25.1355 22.1258 25.3521 22.2259 25.5105 22.3925L30.4043 27.6364C30.7211 27.9699 30.6961 28.4951 30.3625 28.8119C30.1959 28.9621 29.9957 29.0371 29.7958 29.0371C29.5706 29.0371 29.3539 28.9453 29.187 28.7704L25.7608 25.0772V34.1809C25.7608 34.6396 25.3854 35.0146 24.927 35.0146C24.4684 35.0146 24.0933 34.6396 24.0933 34.1809V25.0772L20.6418 28.7704C20.325 29.1037 19.7833 29.1287 19.4497 28.8119C19.1162 28.5034 19.0912 27.9699 19.4079 27.6364L24.2935 22.3925C24.4519 22.2259 24.6686 22.1258 24.902 22.1258Z" fill="#259B9C"/>
</svg>
