<svg width="147" height="40" viewBox="0 0 147 40" fill="none" xmlns="http://www.w3.org/2000/svg">
<path fill-rule="evenodd" clip-rule="evenodd" d="M103.499 34.7735V38.544H119.342V34.7735H113.59V17.2262C113.59 14.1188 112.036 12.5652 108.929 12.5652H103.449V16.3357H107.883C108.755 16.3357 109.192 16.7734 109.192 17.645V34.7735H103.499ZM6.04992 37.4697C7.91814 38.6027 10.0744 39.1712 12.5186 39.1712C15.6961 39.1712 18.2274 38.3431 20.1127 36.6796C21.9999 35.0236 23.239 32.9886 23.8321 30.5785H19.4856C18.9266 32.0109 18.1062 33.1269 17.0243 33.9303C15.9405 34.7356 14.438 35.1354 12.5186 35.1354C11.1563 35.1354 9.87352 34.8227 8.66846 34.1937C7.4634 33.5646 6.46866 32.6134 5.68234 31.3383C4.89602 30.065 4.45076 28.4677 4.34655 26.5465H24.5104C24.5104 26.0576 24.518 25.6218 24.5369 25.2372C24.554 24.8545 24.5635 24.4698 24.5635 24.0852C24.5635 21.9574 24.0936 19.966 23.15 18.1149C22.2083 16.2637 20.846 14.7706 19.0649 13.6357C17.2839 12.5026 15.1371 11.9342 12.6228 11.9342C10.1085 11.9342 7.90867 12.5007 6.0234 13.6357C4.13812 14.7706 2.66212 16.3603 1.59727 18.4029C0.532422 20.4454 0 22.829 0 25.5517C0 28.2764 0.541898 30.66 1.6238 32.7025C2.7057 34.745 4.1817 36.3347 6.04992 37.4697ZM7.20193 17.698C8.72151 16.4759 10.4931 15.8639 12.5186 15.8639C14.6824 15.8639 16.4729 16.4835 17.8864 17.7245C19.2999 18.9637 20.0767 20.6652 20.2169 22.8309H4.3996C4.74823 20.6311 5.68234 18.9201 7.20193 17.698ZM26.625 12.5652L38.0446 38.544H43.1244L54.5952 12.5652H49.6196L40.6101 33.7257L31.6536 12.5652H26.625ZM61.2287 38.0703C62.591 38.8036 64.3001 39.1712 66.3615 39.1712C68.7376 39.1712 70.5603 38.7088 71.8374 37.7823C73.1106 36.8577 74.1319 35.7663 74.9012 34.5082H75.2687L75.6344 38.5421H79.405V22.5675C79.405 19.354 78.558 16.7791 76.8641 14.8407C75.1702 12.9024 72.4721 11.9342 68.7717 11.9342C66.8163 11.9342 65.0523 12.2658 63.4815 12.9289C61.9089 13.594 60.6262 14.5527 59.6314 15.8108C58.6367 17.0671 58.0512 18.5696 57.8769 20.3147H62.3807C62.6952 18.742 63.419 17.59 64.554 16.8567C65.687 16.1235 67.0929 15.7578 68.7698 15.7578C72.9249 15.7578 75.0035 18.0277 75.0035 22.5675V23.0905H67.8811C64.6335 23.0905 62.0415 23.7801 60.1032 25.1595C58.1668 26.5389 57.1967 28.5568 57.1967 31.2094C57.1967 32.64 57.5282 33.9587 58.1914 35.1638C58.8527 36.3688 59.8664 37.337 61.2287 38.0703ZM71.4167 34.0913C70.2458 34.8947 68.8228 35.2964 67.1479 35.2964C65.4009 35.2964 64.0746 34.9118 63.1689 34.1444C62.2594 33.377 61.8066 32.3122 61.8066 30.9499C61.8066 29.6235 62.286 28.5587 63.2466 27.7553C64.2072 26.9519 65.8746 26.5503 68.2487 26.5503H75.0054C75.0054 28.121 74.6984 29.5705 74.0883 30.8968C73.4763 32.2231 72.5858 33.288 71.4167 34.0913ZM127.933 37.4943C129.818 38.6122 131.984 39.1712 134.428 39.1712C136.873 39.1712 139.038 38.6122 140.924 37.4943C142.809 36.3783 144.294 34.7981 145.376 32.7556C146.458 30.713 147 28.3124 147 25.5536C147 22.7949 146.458 20.3942 145.376 18.3517C144.292 16.3092 142.809 14.7289 140.924 13.611C139.038 12.4931 136.873 11.9342 134.428 11.9342C131.984 11.9342 129.818 12.4931 127.933 13.611C126.046 14.7289 124.562 16.3092 123.481 18.3517C122.399 20.3942 121.857 22.7949 121.857 25.5536C121.857 28.3124 122.399 30.713 123.481 32.7556C124.562 34.7962 126.048 36.3783 127.933 37.4943ZM138.513 33.9871C137.291 34.6503 135.929 34.9819 134.428 34.9819C132.193 34.9819 130.29 34.2221 128.719 32.7044C127.149 31.1848 126.362 28.8012 126.362 25.5536C126.362 23.3879 126.73 21.6069 127.463 20.2104C128.197 18.814 129.174 17.7833 130.396 17.1201C131.617 16.457 132.962 16.1254 134.428 16.1254C135.929 16.1254 137.291 16.457 138.513 17.1201C139.736 17.7833 140.704 18.814 141.42 20.2104C142.136 21.6088 142.494 23.3879 142.494 25.5536C142.494 27.7193 142.134 29.5004 141.42 30.8968C140.704 32.2951 139.736 33.324 138.513 33.9871ZM91.2301 5.49207V27.4313L91.2282 30.101V34.7772H99.4779V38.5478H91.4916C89.9909 38.5478 88.8389 38.1461 88.0355 37.3427C87.2322 36.5375 86.8305 35.3855 86.8305 33.8848V30.0991V25.5366V23.8124V5.90891C86.8305 5.18512 86.245 4.59964 85.5212 4.59964H81.0572V0.829102H86.569C88.0696 0.829102 89.2216 1.23078 90.025 2.03416C90.8284 2.83942 91.2301 3.99143 91.2301 5.49207Z" fill="white"/>
<path d="M111.078 7.95523C110.03 7.95523 109.156 7.6066 108.459 6.90744C107.76 6.21017 107.411 5.3708 107.411 4.39312C107.411 3.38132 107.76 2.53437 108.459 1.85226C109.156 1.17205 110.03 0.830992 111.078 0.830992C112.089 0.830992 112.953 1.17205 113.67 1.85226C114.384 2.53248 114.744 3.38132 114.744 4.39312C114.744 5.3708 114.386 6.20828 113.67 6.90744C112.953 7.6066 112.089 7.95523 111.078 7.95523Z" fill="#00E4C9"/>
</svg>
