<svg width="48" height="48" viewBox="0 0 48 48" fill="none" xmlns="http://www.w3.org/2000/svg">
<path d="M29.9375 23.5316H36.8906V27.1644H29.7422L29.9375 23.5316Z" fill="#259B9C"/>
<path d="M7.67587 9.7218C7.65847 6.89465 10.2558 4.5863 10.2558 4.5863C10.2558 4.5863 12.8822 6.862 12.8999 9.68915C12.9176 12.5166 10.3199 14.8249 10.3199 14.8249C10.3199 14.8249 7.69357 12.5493 7.67587 9.7218Z" fill="#C8E6E6"/>
<path d="M11.6549 10.6642C13.1622 9.13768 15.7943 9.29302 15.7943 9.29302C15.7943 9.29302 15.9826 11.923 14.475 13.4492C12.9678 14.9757 10.3356 14.8204 10.3356 14.8204C10.3356 14.8204 10.1476 12.1904 11.6549 10.6642Z" fill="#92CDCD"/>
<path d="M14.2972 34.467H6.31348L8.27789 17.92H12.3328L14.2972 34.467Z" fill="#F0F0F0"/>
<path d="M12.332 17.92H9.12891L11.0933 34.467H14.2964L12.332 17.92Z" fill="#C8E6E6"/>
<path d="M12.3331 17.92H8.2782L7.82227 21.7607H12.789L12.3331 17.92Z" fill="#C8E6E6"/>
<path d="M12.332 17.92H9.12891L9.58484 21.7607H12.788L12.332 17.92Z" fill="#92CDCD"/>
<path d="M36.2266 19.6122V26.7737H30.6797V19.6122H23.4922V26.7737L16.0245 34.4309H4.58594V43.4144H43.414V19.6122H36.2266Z" fill="#F4FAFA"/>
<path d="M28.1016 19.6122H30.6797V26.7737H28.1016V19.6122Z" fill="#C8E6E6"/>
<path d="M40.8359 19.6122V43.4144H43.4141V19.6122H40.8359Z" fill="#C8E6E6"/>
<path d="M25.3438 31.5236H27.845V39.2472H25.3438V31.5236Z" fill="#259B9C"/>
<path d="M31.2031 31.5236H33.7043V39.2472H31.2031V31.5236Z" fill="#259B9C"/>
<path d="M37.0635 31.5236H39.5647V39.2472H37.0635V31.5236Z" fill="#259B9C"/>
<path d="M43.4144 9.87439C43.4144 8.5133 42.3378 7.4104 41.0094 7.4104C40.9572 7.4104 40.9053 7.41193 40.8537 7.41559C40.5583 7.43512 40.2925 7.25232 40.1979 6.97186C39.7294 5.58362 38.4434 4.5863 36.9292 4.5863C35.0188 4.5863 33.4703 6.17291 33.4703 8.13V8.13214C32.5133 8.16479 31.6981 8.76965 31.3408 9.62384C31.1641 10.0456 31.4802 10.511 31.9377 10.511H42.7705C43.1206 10.511 43.4135 10.2311 43.4144 9.8808C43.4144 9.87866 43.4144 9.87652 43.4144 9.87439V9.87439Z" fill="#92CDCD"/>
<path d="M29.8988 15.4341C29.8988 14.073 28.8222 12.9701 27.4937 12.9701C27.4415 12.9701 27.3897 12.9716 27.3381 12.9753C27.0427 12.9948 26.7769 12.812 26.6823 12.5316C26.2138 11.1433 24.9275 10.146 23.4135 10.146C21.5031 10.146 19.9547 11.7326 19.9547 13.6897V13.6918C18.9976 13.7245 18.1825 14.3296 17.8252 15.1835C17.6485 15.6056 17.9646 16.0707 18.4221 16.0707H29.2546C29.6049 16.0707 29.8979 15.7908 29.8988 15.4405C29.8988 15.4384 29.8988 15.4362 29.8988 15.4341Z" fill="#92CDCD"/>
<path d="M43.414 19.0259H36.2266C35.9028 19.0259 35.6406 19.2881 35.6406 19.6119V22.9453H31.2656V19.6119C31.2656 19.2881 31.0035 19.0259 30.6797 19.0259H23.4922C23.1687 19.0259 22.9062 19.2881 22.9062 19.6119V26.5351L15.7773 33.8447H14.8133L12.9145 17.8507C12.8794 17.5559 12.6298 17.3337 12.3325 17.3337H10.9531V15.3992C11.9053 15.3474 13.6884 15.0794 14.892 13.8605C16.5665 12.165 16.3874 9.36897 16.3788 9.25087C16.3578 8.95729 16.1225 8.72505 15.8289 8.70765C15.7557 8.70369 14.6589 8.64723 13.4363 9.00459C13.0704 6.2809 10.7468 4.23561 10.6403 4.14314C10.4178 3.95027 10.0873 3.95271 9.86731 4.14802C9.75317 4.24934 7.07159 6.66755 7.09051 9.72511C7.1073 12.3994 9.18371 14.5588 9.78125 15.1252V17.3341H8.27765C7.98071 17.3341 7.73077 17.5559 7.69598 17.8507L7.02978 23.4623C6.94098 24.2094 8.10461 24.3488 8.19342 23.6005L8.34234 22.3463H12.2681L13.6332 33.8447H6.97729L7.85956 26.413C7.94806 25.665 6.78595 25.5155 6.69562 26.2748L5.79718 33.8447H4.58594C4.26245 33.8447 4 34.1071 4 34.4306V43.4141C4 43.7379 4.26245 44 4.58594 44H43.414C43.7378 44 44 43.7379 44 43.4141V37.4375C44 36.6852 42.8281 36.684 42.8281 37.4375V42.8281H5.17187V35.0165H16.0245C16.1823 35.0165 16.3337 34.9528 16.4438 34.8398L23.9115 27.1824C24.0183 27.0731 24.0781 26.9263 24.0781 26.7734V20.1978H30.0937V26.7734C30.0937 27.0972 30.3559 27.3594 30.6797 27.3594H36.2266C36.5503 27.3594 36.8125 27.0972 36.8125 26.7734V20.1978H42.8281V34.3906C42.8281 35.1429 44 35.1441 44 34.3906V19.6119C44 19.2884 43.7378 19.0259 43.414 19.0259V19.0259ZM31.2656 24.1172H35.6406V26.1875H31.2656V24.1172ZM11.8122 18.5056L12.129 21.1744H8.4812L8.79828 18.5056H11.8122ZM15.2076 9.88685C15.17 10.6715 14.9701 12.114 14.0583 13.0372C13.1458 13.9613 11.7048 14.1788 10.9214 14.2258C10.9321 14.0006 10.9565 13.7202 11.0081 13.4107C11.1231 12.7204 11.4011 11.7548 12.0719 11.0755C12.9838 10.152 14.4239 9.93415 15.2076 9.88685ZM11.2382 10.2521C10.3119 11.19 9.95337 12.4638 9.81878 13.4354C9.1239 12.5785 8.27185 11.2232 8.26239 9.71778C8.25049 7.82661 9.58441 6.14326 10.2616 5.41115C10.9202 6.10542 12.1924 7.66731 12.3057 9.46266C11.9263 9.66682 11.561 9.925 11.2382 10.2521Z" fill="#18332F"/>
<path d="M27.845 30.9376H25.3437C25.0203 30.9376 24.7578 31.1998 24.7578 31.5236V39.2473C24.7578 39.571 25.0203 39.8332 25.3437 39.8332H27.845C28.1688 39.8332 28.4309 39.571 28.4309 39.2473V31.5236C28.4309 31.2001 28.1685 30.9376 27.845 30.9376ZM27.259 38.6613H25.9297V32.1095H27.259V38.6613Z" fill="#18332F"/>
<path d="M33.7043 30.9376H31.2031C30.8796 30.9376 30.6172 31.1998 30.6172 31.5236V39.2473C30.6172 39.571 30.8796 39.8332 31.2031 39.8332H33.7043C34.0278 39.8332 34.2903 39.571 34.2903 39.2473V31.5236C34.2903 31.2001 34.0278 30.9376 33.7043 30.9376ZM33.1184 38.6613H31.7891V32.1095H33.1184V38.6613Z" fill="#18332F"/>
<path d="M39.5647 30.9376H37.0635C36.74 30.9376 36.4775 31.1998 36.4775 31.5236V39.2473C36.4775 39.571 36.74 39.8332 37.0635 39.8332H39.5647C39.8882 39.8332 40.1506 39.571 40.1506 39.2473V31.5236C40.1506 31.2001 39.8882 30.9376 39.5647 30.9376ZM38.9788 38.6613H37.6494V32.1095H38.9788V38.6613Z" fill="#18332F"/>
<path d="M21.1484 38.6879H7.86719C7.5437 38.6879 7.28125 38.95 7.28125 39.2738C7.28125 39.5976 7.5437 39.8597 7.86719 39.8597H21.1484C21.4719 39.8597 21.7344 39.5976 21.7344 39.2738C21.7344 38.95 21.4719 38.6879 21.1484 38.6879Z" fill="#18332F"/>
<path d="M41.0087 6.82446C40.9049 6.86841 40.8195 6.85498 40.752 6.78448C40.1902 5.11914 38.6533 4.00037 36.9282 4.00037C34.8688 4.00037 33.1638 5.57996 32.9148 7.61487C31.981 7.8233 31.182 8.48309 30.7993 9.3977C30.4658 10.1936 31.0804 11.0969 31.9367 11.0969H38.2181C38.9713 11.0969 38.9826 9.92505 38.2181 9.92505H31.9367C31.8909 9.91833 31.8723 9.89331 31.8802 9.84997C32.1583 9.18591 32.7897 8.74158 33.4894 8.71777C33.805 8.70709 34.0552 8.448 34.0552 8.13214C34.0552 8.12939 34.0552 8.12634 34.0552 8.12359C34.0586 6.49548 35.3461 5.17224 36.9282 5.17224C38.1504 5.17224 39.2408 5.97058 39.6415 7.15893C39.8508 7.77875 40.4081 7.99634 41.0084 7.99634C42.0115 7.99634 42.8275 8.83862 42.8275 9.87927C42.8275 9.90277 42.7991 9.92505 42.7692 9.92505H41.4994C40.7462 9.92505 40.7349 11.0969 41.4994 11.0969H42.7695C43.4458 11.0969 43.9976 10.5522 43.9994 9.88232C43.9994 9.88171 43.9994 9.87469 43.9994 9.87439C43.9994 8.19256 42.6575 6.82446 41.0087 6.82446Z" fill="#18332F"/>
<path d="M18.4219 16.6566H29.2548C29.9286 16.6566 30.4742 16.1009 30.4846 15.4341C30.4846 13.7523 29.1428 12.3838 27.4939 12.3838C27.3904 12.4278 27.305 12.4147 27.2372 12.3442C26.6754 10.6788 25.1389 9.56006 23.4134 9.56006C21.3541 9.56006 19.6491 11.1396 19.4 13.1746C18.4665 13.383 17.6672 14.0428 17.2846 14.9574C16.9513 15.7533 17.5656 16.6566 18.4219 16.6566V16.6566ZM29.3127 15.439C29.3127 15.4625 29.2844 15.4847 29.2548 15.4847H18.4219C18.3765 15.478 18.3576 15.453 18.3655 15.4097C18.6435 14.7456 19.2752 14.3013 19.9744 14.2775C20.2902 14.2668 20.5405 14.0077 20.5405 13.6918C20.5405 13.69 20.5405 13.6879 20.5405 13.6857C20.5426 12.0567 21.8308 10.7319 23.4134 10.7319C24.6356 10.7319 25.726 11.5303 26.127 12.7189C26.3364 13.3394 26.893 13.5557 27.4939 13.5557C28.497 13.5557 29.3127 14.3983 29.3127 15.4341V15.439Z" fill="#18332F"/>
</svg>
