<svg width="16" height="16" viewBox="0 0 16 16" fill="none" xmlns="http://www.w3.org/2000/svg">
<path d="M15.5 9.0689V6.9314L13.6835 6.071L13.3835 5.3453L14.06 3.4532L12.5468 1.94L10.6535 2.6177L9.9293 2.3177L9.0689 0.5H6.9314L6.0707 2.3174L5.3465 2.6174L3.4532 1.94L1.94 3.4532L2.6165 5.3465L2.3165 6.0722L0.5 6.9314V9.0689L2.3165 9.929L2.6165 10.6547L1.94 12.5468L3.4532 14.06L5.3465 13.3835L6.0722 13.6835L6.9314 15.5H9.0689L9.929 13.6835L10.6547 13.3835L12.5468 14.06L14.06 12.5468L13.3835 10.6535L13.6835 9.9278L15.5 9.0689ZM12.9767 12.3032L12.3041 12.9758L10.6298 12.3782L9.2366 12.9557L8.4752 14.5625H7.5248L6.7637 12.9557L5.3705 12.3782L3.6962 12.9782L3.0233 12.3041L3.6233 10.6298L3.0443 9.2366L1.4375 8.4752V7.5248L3.0443 6.7637L3.6218 5.3705L3.0218 3.6962L3.6944 3.0236L5.3696 3.6236L6.7613 3.047L7.523 1.4393H8.4737L9.2354 3.047L10.6271 3.6236L12.3023 3.0236L12.9749 3.6962L12.3749 5.3705L12.9524 6.7637L14.5592 7.5248V8.4755L12.9524 9.2369L12.3749 10.6301L12.9767 12.3032Z" fill="#76757B"/>
<path d="M8 5.1875C7.44374 5.1875 6.89997 5.35245 6.43746 5.66149C5.97495 5.97053 5.61446 6.40978 5.40159 6.9237C5.18872 7.43762 5.13302 8.00312 5.24154 8.54869C5.35006 9.09426 5.61793 9.5954 6.01126 9.98874C6.4046 10.3821 6.90574 10.6499 7.45131 10.7585C7.99688 10.867 8.56238 10.8113 9.0763 10.5984C9.59022 10.3855 10.0295 10.0251 10.3385 9.56254C10.6476 9.10003 10.8125 8.55626 10.8125 8C10.8125 7.25408 10.5162 6.53871 9.98874 6.01126C9.46129 5.48382 8.74592 5.1875 8 5.1875ZM8 9.875C7.62916 9.875 7.26665 9.76503 6.9583 9.55901C6.64996 9.35298 6.40964 9.06014 6.26773 8.71753C6.12581 8.37492 6.08868 7.99792 6.16103 7.63421C6.23337 7.27049 6.41195 6.9364 6.67417 6.67417C6.9364 6.41195 7.27049 6.23337 7.63421 6.16103C7.99792 6.08868 8.37492 6.12581 8.71753 6.26773C9.06014 6.40964 9.35298 6.64996 9.55901 6.9583C9.76503 7.26665 9.875 7.62916 9.875 8C9.875 8.49728 9.67746 8.97419 9.32582 9.32582C8.97419 9.67746 8.49728 9.875 8 9.875Z" fill="#76757B"/>
</svg>
