<svg width="75" height="75" viewBox="0 0 75 75" fill="none" xmlns="http://www.w3.org/2000/svg">
<g clip-path="url(#clip0_785_129122)">
<path d="M68.5827 37.4839C60.3507 38.586 52.1186 39.6881 43.7007 40.8146C46.4576 44.4164 49.1255 47.9012 51.7934 51.3874L51.6991 51.5004C48.2143 48.8608 44.7307 46.2211 41.1568 43.5146C40.0352 51.8434 38.9277 60.0681 37.8203 68.2941L37.6784 68.3044C36.5709 60.0797 35.4635 51.855 34.3393 43.5146C30.7654 46.2237 27.2793 48.8646 23.7931 51.5056L23.6886 51.4118C26.3577 47.9192 29.0281 44.4254 31.7889 40.8133C23.3956 39.6907 15.1622 38.5886 6.92892 37.4864L6.91602 37.3387C15.1442 36.2366 23.3723 35.1345 31.7231 34.017C29.001 30.4666 26.3461 27.0023 23.6911 23.5393L23.7879 23.4314C27.2689 26.0685 30.7486 28.7043 34.3329 31.4197C35.4532 23.0974 36.5619 14.8688 37.6693 6.64026L37.8281 6.6377C38.9355 14.8675 40.0429 23.0974 41.1632 31.421C44.7346 28.7145 48.2143 26.0774 51.694 23.4391L51.8063 23.5341C49.15 26.9997 46.4938 30.4666 43.773 34.017C52.1173 35.1332 60.3494 36.2353 68.5814 37.3362C68.5814 37.385 68.5814 37.4351 68.5814 37.4839H68.5827ZM37.7713 37.6701V65.3641C38.0243 63.991 38.1921 62.6089 38.3779 61.2306C39.2672 54.6372 40.1629 48.0438 41.0432 41.4492C41.0703 41.2449 41.0161 40.9546 40.8819 40.8146C39.8996 39.7883 38.8864 38.7902 37.7713 37.6701ZM37.7248 37.1294V9.54454C37.6822 9.61133 37.6487 9.64088 37.6448 9.67556C36.5735 17.5933 35.5035 25.5123 34.4465 33.4313C34.4219 33.6149 34.4904 33.8757 34.6155 34.0054C35.6042 35.0266 36.6174 36.0234 37.7248 37.1294ZM37.4809 37.4351H9.87944C10.6151 37.5969 11.3573 37.6881 12.0981 37.7883C19.2989 38.7568 26.4984 39.7292 33.7004 40.6887C33.8915 40.7144 34.1638 40.6784 34.2903 40.559C35.3332 39.5673 36.3502 38.5487 37.4809 37.4363V37.4351ZM65.6722 37.3875C65.5973 37.3426 65.5676 37.3105 65.5328 37.3053C58.0739 36.3086 50.6098 35.3554 43.1625 34.2829C41.8137 34.0889 40.8883 34.306 40.0442 35.3593C39.4789 36.0645 38.7251 36.6207 38.0552 37.2437L38.183 37.3875H65.6722ZM49.9141 25.1398C49.9206 25.1372 49.8612 25.1398 49.8225 25.168C47.032 27.2797 44.2415 29.3928 41.4575 31.5122C41.3478 31.5957 41.2213 31.7652 41.2329 31.8821C41.2871 32.4525 41.3852 33.0189 41.4588 33.5186C44.2983 30.7042 47.1211 27.9079 49.9141 25.1385V25.1398ZM25.0722 49.9102L25.2374 50.1055C28.175 47.8768 31.1139 45.6495 34.0489 43.417C34.1483 43.3412 34.2774 43.2025 34.2684 43.1036C34.209 42.4768 34.1148 41.8525 34.0593 41.4312C31.092 44.2301 28.0821 47.0702 25.0735 49.9102H25.0722ZM50.211 49.5544L50.0845 49.6803C50.0858 49.6456 50.1039 49.5981 50.0871 49.5762C47.9419 46.7311 45.7942 43.8859 43.6401 41.0471C43.5691 40.9546 43.4129 40.8596 43.3071 40.8711C42.734 40.9328 42.1648 41.0266 41.593 41.11C41.5517 41.1794 41.5104 41.2488 41.4691 41.3169C44.3835 44.0631 47.2966 46.8081 50.211 49.5544ZM33.8011 33.7434C30.9448 30.9008 28.095 28.0659 25.2451 25.2297C25.3703 25.3132 25.4529 25.4429 25.5471 25.5649C27.3348 27.895 29.2063 30.1686 30.879 32.5783C31.6844 33.7395 32.5169 34.1737 33.8308 33.7267C33.8476 33.7216 33.8618 33.7087 33.8024 33.7434H33.8011Z" fill="black"/>
<path d="M34.8096 15.8348C35.0406 16.382 34.7786 16.4385 34.4095 16.4989C29.7488 17.2683 25.7115 19.2837 22.4925 22.7249C19.4801 25.9464 17.4963 29.7319 16.829 34.1287C16.7657 34.5501 16.6341 34.6926 16.1875 34.4935C16.7515 29.9053 18.7482 25.958 21.8149 22.5797C25.2791 18.7609 29.6778 16.5849 34.8109 15.8335L34.8096 15.8348Z" fill="black"/>
<path d="M16.2207 40.2996C16.6505 40.139 16.7628 40.2867 16.8299 40.6747C18.149 48.3278 22.3967 53.7574 29.5187 56.8941C31.074 57.5788 32.8009 57.8871 34.4621 58.3174C34.8789 58.4253 35.0145 58.5357 34.8312 58.9249C25.089 57.9025 17.0971 49.4684 16.2207 40.2983V40.2996Z" fill="black"/>
<path d="M40.6912 58.9878C40.4744 58.4971 40.6499 58.4021 41.059 58.3224C49.9351 56.5973 55.6774 51.4246 58.2485 42.7978C58.455 42.1029 58.5673 41.3772 58.6692 40.6579C58.7273 40.2494 58.8822 40.1466 59.312 40.32C58.7764 44.654 57.0456 48.4651 54.1557 51.7444C50.5831 55.7996 46.0811 58.1811 40.6925 58.9865L40.6912 58.9878Z" fill="black"/>
<path d="M59.3345 34.4974C58.9111 34.6579 58.7369 34.6078 58.6698 34.1801C58.0347 30.1069 56.2871 26.563 53.5999 23.4288C50.2661 19.5406 46.0171 17.3492 41.0144 16.4924C40.6065 16.4231 40.502 16.2831 40.6775 15.8438C44.9949 16.4398 48.8424 18.1135 52.0782 21.0203C56.0897 24.6234 58.5329 29.1089 59.3345 34.4974Z" fill="black"/>
<path d="M37.7695 37.6702C38.886 38.7903 39.8979 39.7883 40.8801 40.8146C41.013 40.9547 41.0685 41.2437 41.0414 41.4492C40.1612 48.0439 39.2654 54.6372 38.3762 61.2306C38.1903 62.6102 38.0212 63.991 37.7695 65.3642V37.6702Z" fill="white"/>
<path d="M37.7247 37.1292C36.6173 36.022 35.6041 35.0252 34.6154 34.0053C34.4902 33.8756 34.4218 33.6148 34.4463 33.4311C35.5034 25.5109 36.5747 17.5932 37.6447 9.67545C37.6498 9.64206 37.6821 9.61123 37.7247 9.54443V37.1292Z" fill="white"/>
<path d="M37.4803 37.4351C36.351 38.5475 35.3339 39.5661 34.2898 40.5578C34.1633 40.6772 33.8909 40.7132 33.6999 40.6875C26.4979 39.728 19.2984 38.7556 12.0976 37.7871C11.3567 37.6869 10.6146 37.5957 9.87891 37.4338H37.4803V37.4351Z" fill="white"/>
<path d="M65.6716 37.3875H38.1825L38.0547 37.2437C38.7246 36.6207 39.4783 36.0645 40.0436 35.3593C40.8878 34.306 41.8145 34.0889 43.162 34.2829C50.6092 35.3554 58.0733 36.3098 65.5322 37.3053C65.5658 37.3105 65.5968 37.3426 65.6716 37.3875Z" fill="white"/>
<path d="M49.9144 25.1396C47.1213 27.9078 44.2986 30.7054 41.459 33.5198C41.3868 33.0201 41.2874 32.4536 41.2332 31.8833C41.2216 31.7664 41.348 31.5982 41.4577 31.5134C44.2418 29.3927 47.0322 27.2809 49.8227 25.1692C49.8614 25.1396 49.9208 25.1384 49.9144 25.1409V25.1396Z" fill="white"/>
<path d="M25.0716 49.9102C28.0815 47.0701 31.0914 44.2314 34.0574 41.4312C34.1129 41.8525 34.2071 42.4767 34.2665 43.1036C34.2755 43.2012 34.1465 43.3412 34.0471 43.417C31.112 45.6495 28.1731 47.8781 25.2355 50.1054L25.0703 49.9102H25.0716Z" fill="white"/>
<path d="M50.2106 49.5543C47.2962 46.8081 44.3831 44.0631 41.4688 41.3168C41.5101 41.2474 41.5514 41.1781 41.5927 41.11C42.1631 41.0265 42.7336 40.9327 43.3067 40.8711C43.4125 40.8595 43.57 40.9546 43.6397 41.0471C45.7939 43.8858 47.9416 46.731 50.0867 49.5762C50.1035 49.598 50.0867 49.6443 50.0841 49.6802L50.2106 49.5543Z" fill="white"/>
<path d="M33.8014 33.7435C33.8608 33.7088 33.8466 33.7203 33.8298 33.7268C32.5172 34.1738 31.6847 33.7396 30.878 32.5784C29.2053 30.1687 27.3351 27.8951 25.5462 25.565C25.4532 25.443 25.3706 25.3132 25.2441 25.2297C28.094 28.0659 30.9438 30.9008 33.8001 33.7435H33.8014Z" fill="white"/>
</g>
<defs>
<clipPath id="clip0_785_129122">
<rect width="61.6667" height="61.6667" fill="white" transform="translate(6.91602 6.6377)"/>
</clipPath>
</defs>
</svg>
