<svg width="25" height="24" viewBox="0 0 25 24" fill="none" xmlns="http://www.w3.org/2000/svg">
<path d="M19.75 4H18.65C18.4179 2.87141 17.8038 1.85735 16.9113 1.12872C16.0187 0.40009 14.9022 0.00145452 13.75 0L11.75 0C10.5978 0.00145452 9.48132 0.40009 8.58875 1.12872C7.69618 1.85735 7.0821 2.87141 6.85 4H5.75C4.42441 4.00159 3.15356 4.52888 2.21622 5.46622C1.27888 6.40356 0.751588 7.67441 0.75 9L0.75 19C0.751588 20.3256 1.27888 21.5964 2.21622 22.5338C3.15356 23.4711 4.42441 23.9984 5.75 24H19.75C21.0756 23.9984 22.3464 23.4711 23.2838 22.5338C24.2211 21.5964 24.7484 20.3256 24.75 19V9C24.7484 7.67441 24.2211 6.40356 23.2838 5.46622C22.3464 4.52888 21.0756 4.00159 19.75 4ZM11.75 2H13.75C14.3683 2.00256 14.9706 2.19608 15.4747 2.55409C15.9788 2.91209 16.3599 3.41709 16.566 4H8.934C9.14008 3.41709 9.52123 2.91209 10.0253 2.55409C10.5294 2.19608 11.1317 2.00256 11.75 2ZM5.75 6H19.75C20.5456 6 21.3087 6.31607 21.8713 6.87868C22.4339 7.44129 22.75 8.20435 22.75 9V12H2.75V9C2.75 8.20435 3.06607 7.44129 3.62868 6.87868C4.19129 6.31607 4.95435 6 5.75 6ZM19.75 22H5.75C4.95435 22 4.19129 21.6839 3.62868 21.1213C3.06607 20.5587 2.75 19.7956 2.75 19V14H11.75V15C11.75 15.2652 11.8554 15.5196 12.0429 15.7071C12.2304 15.8946 12.4848 16 12.75 16C13.0152 16 13.2696 15.8946 13.4571 15.7071C13.6446 15.5196 13.75 15.2652 13.75 15V14H22.75V19C22.75 19.7956 22.4339 20.5587 21.8713 21.1213C21.3087 21.6839 20.5456 22 19.75 22Z" fill="#00E4C9"/>
</svg>
