<svg width="18" height="18" viewBox="0 0 18 18" fill="none" xmlns="http://www.w3.org/2000/svg">
<path d="M14.8327 0.666504L3.16602 0.666504C1.78743 0.666504 0.666016 1.78792 0.666016 3.1665L0.666016 14.8332C0.666016 16.2118 1.78743 17.3332 3.16602 17.3332H14.8327C16.2113 17.3332 17.3327 16.2118 17.3327 14.8332V3.1665C17.3327 1.78792 16.2113 0.666504 14.8327 0.666504Z" fill="url(#paint0_linear_1549_673)"/>
<path d="M13.3581 10.4722C13.0806 10.6121 12.7457 10.6862 12.3888 10.6862C11.6479 10.6862 10.9268 10.381 10.5057 9.88949L8.75765 7.85824C8.17375 7.17627 7.35059 6.78564 6.49935 6.78564C5.64811 6.78564 4.82495 7.17627 4.24186 7.85742L0.666016 12.0249L0.666016 14.8333C0.666016 16.2119 1.78743 17.3333 3.16602 17.3333H14.8327C16.2113 17.3333 17.3327 16.2119 17.3327 14.8333V8.48486L13.3581 10.4722Z" fill="url(#paint1_linear_1549_673)"/>
<path d="M12.332 8.1665C13.7127 8.1665 14.832 7.04722 14.832 5.6665C14.832 4.28579 13.7127 3.1665 12.332 3.1665C10.9513 3.1665 9.83203 4.28579 9.83203 5.6665C9.83203 7.04722 10.9513 8.1665 12.332 8.1665Z" fill="url(#paint2_linear_1549_673)"/>
<defs>
<linearGradient id="paint0_linear_1549_673" x1="0.666016" y1="8.99984" x2="17.3327" y2="8.99984" gradientUnits="userSpaceOnUse">
<stop stop-color="#BBDEFB"/>
<stop offset="1" stop-color="#64B5F6"/>
</linearGradient>
<linearGradient id="paint1_linear_1549_673" x1="0.666016" y1="12.06" x2="17.3327" y2="12.06" gradientUnits="userSpaceOnUse">
<stop stop-color="#42A5F5"/>
<stop offset="1" stop-color="#1E88E5"/>
</linearGradient>
<linearGradient id="paint2_linear_1549_673" x1="9.83203" y1="5.6665" x2="14.832" y2="5.6665" gradientUnits="userSpaceOnUse">
<stop stop-color="#42A5F5"/>
<stop offset="1" stop-color="#1E88E5"/>
</linearGradient>
</defs>
</svg>
