<svg width="14" height="16" viewBox="0 0 14 16" fill="none" xmlns="http://www.w3.org/2000/svg">
<path fill-rule="evenodd" clip-rule="evenodd" d="M6.99998 1.54651C5.30366 1.54651 3.92851 2.87403 3.92851 4.51161C3.92851 6.14918 5.30365 7.4767 6.99998 7.4767C8.6963 7.4767 10.0714 6.14918 10.0714 4.51161C10.0714 2.87403 8.6963 1.54651 6.99998 1.54651ZM2.84446 4.51161C2.84446 2.29606 4.70495 0.5 6.99998 0.5C9.295 0.5 11.1555 2.29606 11.1555 4.51161C11.1555 6.72716 9.295 8.52321 6.99998 8.52321C4.70495 8.52321 2.84446 6.72716 2.84446 4.51161ZM0.25 14.9767C0.25 11.8924 3.38443 9.5698 7 9.5698C10.6156 9.5698 13.75 11.8924 13.75 14.9767C13.75 15.2657 13.5073 15.5 13.208 15.5C12.9086 15.5 12.6659 15.2657 12.6659 14.9767C12.6659 12.6611 10.2356 10.6163 7 10.6163C3.76439 10.6163 1.33405 12.6611 1.33405 14.9767C1.33405 15.2657 1.09138 15.5 0.792027 15.5C0.492674 15.5 0.25 15.2657 0.25 14.9767Z" fill="#76757B"/>
</svg>
