<svg width="64" height="64" viewBox="0 0 64 64" fill="none" xmlns="http://www.w3.org/2000/svg">
<path d="M27.5893 10.2809L5.63477 48.213C5.23819 48.898 5.02937 49.6751 5.0293 50.4661C5.02922 51.2571 5.2379 52.0342 5.63435 52.7193C6.0308 53.4044 6.60105 53.9733 7.28777 54.3688C7.97449 54.7643 8.75348 54.9725 9.54643 54.9724H53.452C54.2449 54.9725 55.0239 54.7643 55.7106 54.3688C56.3974 53.9733 56.9676 53.4044 57.3641 52.7193C57.7605 52.0342 57.9692 51.2571 57.9691 50.4661C57.969 49.6751 57.7602 48.898 57.3636 48.213L35.4115 10.2809C35.0151 9.59602 34.445 9.0273 33.7584 8.63189C33.0719 8.23648 32.2931 8.02832 31.5004 8.02832C30.7076 8.02832 29.9289 8.23648 29.2423 8.63189C28.5558 9.0273 27.9857 9.59602 27.5893 10.2809Z" fill="#259B9C"/>
<path d="M31.7858 21.9802H31.2131C29.8032 21.9802 28.6602 23.1205 28.6602 24.5271V36.7005C28.6602 38.1071 29.8032 39.2473 31.2131 39.2473H31.7858C33.1958 39.2473 34.3388 38.1071 34.3388 36.7005V24.5271C34.3388 23.1205 33.1958 21.9802 31.7858 21.9802Z" fill="#FFF7ED"/>
<path d="M31.4995 48.902C33.0676 48.902 34.3388 47.6339 34.3388 46.0696C34.3388 44.5052 33.0676 43.2371 31.4995 43.2371C29.9314 43.2371 28.6602 44.5052 28.6602 46.0696C28.6602 47.6339 29.9314 48.902 31.4995 48.902Z" fill="#FFF7ED"/>
<path d="M58.2571 47.6988L36.3043 9.76674C35.8173 8.92553 35.117 8.227 34.2737 7.74134C33.4304 7.25568 32.4738 7 31.5 7C30.5262 7 29.5696 7.25568 28.7263 7.74134C27.883 8.227 27.1827 8.92553 26.6957 9.76674L19.9247 21.4635C19.857 21.5805 19.8131 21.7097 19.7954 21.8436C19.7777 21.9776 19.7867 22.1137 19.8218 22.2442C19.8568 22.3747 19.9173 22.497 19.9998 22.6042C20.0823 22.7114 20.1851 22.8013 20.3024 22.8689C20.4197 22.9364 20.5492 22.9802 20.6834 22.9978C20.8177 23.0155 20.9542 23.0065 21.085 22.9715C21.2158 22.9365 21.3384 22.8762 21.4458 22.7939C21.5533 22.7117 21.6434 22.6091 21.7111 22.4921L28.4816 10.7954C28.7875 10.2669 29.2275 9.82799 29.7574 9.52287C30.2872 9.21775 30.8882 9.05713 31.5 9.05713C32.1118 9.05713 32.7128 9.21775 33.2426 9.52287C33.7725 9.82799 34.2125 10.2669 34.5184 10.7954L56.4712 48.7275C56.777 49.256 56.9379 49.8556 56.9379 50.4659C56.9378 51.0762 56.7767 51.6757 56.4709 52.2042C56.165 52.7327 55.725 53.1716 55.1953 53.4768C54.6655 53.782 54.0645 53.9427 53.4528 53.9428H9.54722C8.93546 53.9427 8.33451 53.782 7.80473 53.4768C7.27496 53.1716 6.83503 52.7327 6.52914 52.2042C6.22326 51.6757 6.06219 51.0762 6.06213 50.4659C6.06206 49.8556 6.223 49.256 6.52878 48.7275L14.9012 34.2611C15.038 34.0248 15.075 33.744 15.0042 33.4804C14.9333 33.2168 14.7604 32.9921 14.5236 32.8557C14.2867 32.7193 14.0051 32.6824 13.741 32.7531C13.4768 32.8237 13.2515 32.9962 13.1148 33.2325L4.74293 47.6988C4.25616 48.5402 3.99994 49.4945 4 50.4659C4.00006 51.4373 4.25641 52.3915 4.74328 53.2328C5.23016 54.074 5.93041 54.7726 6.77366 55.2584C7.61692 55.7441 8.57348 55.9999 9.54722 56H53.4528C54.4265 55.9999 55.3831 55.7441 56.2263 55.2584C57.0696 54.7726 57.7698 54.074 58.2567 53.2328C58.7436 52.3915 58.9999 51.4373 59 50.4659C59.0001 49.4945 58.7438 48.5402 58.2571 47.6988Z" fill="#020407"/>
<path d="M16.7574 28.9952C16.8747 29.0628 17.0042 29.1067 17.1385 29.1244C17.2728 29.1421 17.4092 29.1332 17.5401 29.0982C17.6709 29.0632 17.7936 29.0028 17.901 28.9205C18.0084 28.8382 18.0985 28.7355 18.1662 28.6184L18.7094 27.678C18.7782 27.5609 18.8231 27.4315 18.8415 27.2971C18.8599 27.1627 18.8515 27.026 18.8167 26.8948C18.782 26.7637 18.7216 26.6407 18.639 26.5329C18.5564 26.4252 18.4532 26.3348 18.3354 26.267C18.2177 26.1991 18.0876 26.1552 17.9528 26.1377C17.8179 26.1202 17.681 26.1295 17.5497 26.1651C17.4185 26.2006 17.2956 26.2617 17.1882 26.3448C17.0807 26.4279 16.9908 26.5314 16.9235 26.6494L16.3803 27.5898C16.2436 27.8261 16.2066 28.1068 16.2773 28.3703C16.348 28.6339 16.5207 28.8586 16.7574 28.9952Z" fill="#020407"/>
<path d="M31.787 40.276C32.7374 40.2749 33.6485 39.8978 34.3206 39.2274C34.9926 38.557 35.3706 37.648 35.3717 36.6999V24.5271C35.3706 23.5791 34.9926 22.6702 34.3205 21.9999C33.6485 21.3296 32.7374 20.9526 31.787 20.9517H31.2155C30.2652 20.9526 29.3541 21.3296 28.682 21.9999C28.01 22.6702 27.632 23.5791 27.6309 24.5271V36.6999C27.632 37.648 28.01 38.557 28.682 39.2274C29.354 39.8978 30.2651 40.2749 31.2155 40.276H31.787ZM29.693 36.6999V24.5271C29.6935 24.1245 29.8541 23.7385 30.1395 23.4539C30.4249 23.1692 30.8119 23.0092 31.2155 23.0089H31.787C32.1906 23.0092 32.5776 23.1692 32.863 23.4539C33.1485 23.7385 33.309 24.1245 33.3095 24.5271V36.6999C33.309 37.1026 33.1485 37.4886 32.8631 37.7734C32.5777 38.0581 32.1907 38.2183 31.787 38.2187H31.2155C30.8119 38.2183 30.4249 38.0581 30.1395 37.7734C29.8541 37.4886 29.6935 37.1026 29.693 36.6999Z" fill="#020407"/>
<path d="M31.5013 49.9324C32.2668 49.9324 33.0151 49.706 33.6516 49.2817C34.2881 48.8574 34.7841 48.2544 35.0771 47.5489C35.37 46.8434 35.4467 46.067 35.2973 45.318C35.148 44.5691 34.7794 43.8811 34.2381 43.3411C33.6968 42.8011 33.0071 42.4334 32.2564 42.2844C31.5056 42.1354 30.7274 42.2119 30.0201 42.5041C29.3129 42.7964 28.7084 43.2912 28.2831 43.9262C27.8579 44.5611 27.6309 45.3077 27.6309 46.0713C27.6321 47.0949 28.0403 48.0763 28.7659 48.8001C29.4914 49.524 30.4752 49.9312 31.5013 49.9324ZM31.5013 44.2674C31.8589 44.2674 32.2085 44.3732 32.5059 44.5714C32.8032 44.7696 33.035 45.0514 33.1719 45.381C33.3087 45.7106 33.3445 46.0733 33.2748 46.4232C33.205 46.7731 33.0328 47.0946 32.7799 47.3468C32.527 47.5991 32.2048 47.7709 31.854 47.8405C31.5033 47.9101 31.1397 47.8744 30.8093 47.7379C30.4789 47.6013 30.1965 47.3701 29.9978 47.0735C29.7991 46.7768 29.693 46.4281 29.693 46.0713C29.6932 45.5928 29.8837 45.1339 30.2227 44.7953C30.5617 44.4568 31.0216 44.2663 31.5013 44.2657V44.2674Z" fill="#020407"/>
</svg>
