<svg width="40" height="40" viewBox="0 0 40 40" fill="none" xmlns="http://www.w3.org/2000/svg">
<path d="M31.6673 3.3335L8.33398 3.3335C5.57682 3.3335 3.33398 5.57633 3.33398 8.3335L3.33398 31.6668C3.33398 34.424 5.57682 36.6668 8.33398 36.6668H31.6673C34.4245 36.6668 36.6673 34.424 36.6673 31.6668V8.3335C36.6673 5.57633 34.4245 3.3335 31.6673 3.3335Z" fill="#C8E6E6"/>
<path d="M28.7181 22.9443C28.1631 23.2243 27.4933 23.3724 26.7796 23.3724C25.2977 23.3724 23.8556 22.762 23.0133 21.779L19.5173 17.7165C18.3494 16.3525 16.7031 15.5713 15.0007 15.5713C13.2982 15.5713 11.6519 16.3525 10.4857 17.7148L3.33398 26.0498L3.33398 31.6667C3.33398 34.4238 5.57682 36.6667 8.33398 36.6667H31.6673C34.4245 36.6667 36.6673 34.4238 36.6673 31.6667V18.9697L28.7181 22.9443Z" fill="#259B9C"/>
<path d="M26.668 18.3335C29.4294 18.3335 31.668 16.0949 31.668 13.3335C31.668 10.5721 29.4294 8.3335 26.668 8.3335C23.9065 8.3335 21.668 10.5721 21.668 13.3335C21.668 16.0949 23.9065 18.3335 26.668 18.3335Z" fill="#92CDCD"/>
</svg>
