<svg width="18" height="19" viewBox="0 0 18 19" fill="none" xmlns="http://www.w3.org/2000/svg">
<path fill-rule="evenodd" clip-rule="evenodd" d="M6.75 2H10.5V3.875H14.25V6.6875H13.3125V17H3.9375V13.25H4.875V16.0625H12.375V6.6875H4.875V8.5625H3.9375V6.6875H3V3.875H6.75V2ZM9.5625 2.9375H7.6875V3.875H9.5625V2.9375ZM3.9375 5.75H13.3125V4.8125H3.9375V5.75ZM8.7421 12.155L7.1985 13.6986L6.53569 13.0358L8.07928 11.4922L6.53569 9.9486L7.1985 9.28579L8.7421 10.8294L10.2857 9.28579L10.9485 9.9486L9.40491 11.4922L10.9485 13.0358L10.2857 13.6986L8.7421 12.155ZM4.875 9.5H3.9375V10.4375H4.875V9.5ZM3.9375 11.375H4.875V12.3125H3.9375V11.375Z" fill="#76757B"/>
</svg>
