<svg width="16" height="16" viewBox="0 0 16 16" fill="none" xmlns="http://www.w3.org/2000/svg">
<path d="M8.46892 6.53992C8.53049 6.53992 8.59144 6.55251 8.64832 6.57697C8.70519 6.60144 8.75686 6.63729 8.80038 6.68249C8.8439 6.72769 8.87841 6.78134 8.90194 6.84039C8.92547 6.89943 8.93756 6.96271 8.93752 7.02661V8.06539L12.9131 4.62646L8.93752 0.5V1.67454C8.93756 1.73844 8.92547 1.80172 8.90194 1.86077C8.87841 1.91981 8.8439 1.97347 8.80038 2.01867C8.75686 2.06386 8.70519 2.09972 8.64832 2.12418C8.59144 2.14864 8.53049 2.16124 8.46892 2.16124H4.71891C3.6004 2.16247 2.52805 2.62418 1.73711 3.44507C0.946179 4.26595 0.501271 5.37897 0.5 6.53992V10.4322H1.4375C1.43861 9.40027 1.83406 8.41092 2.53708 7.68122C3.24011 6.95153 4.19329 6.54107 5.18751 6.53992H8.46892ZM1.4375 7.5158V6.53992C1.43846 5.63697 1.78444 4.77128 2.39955 4.13277C3.01466 3.49426 3.84867 3.13507 4.71861 3.134H8.46862C8.686 3.1339 8.9004 3.0815 9.09498 2.9809C9.28955 2.8803 9.45901 2.73424 9.59003 2.5542L11.5241 4.56107L9.62753 6.19927C9.49824 6.00415 9.32515 5.84461 9.12319 5.73443C8.92123 5.62425 8.69648 5.56673 8.46832 5.56684H5.18751C4.45951 5.56678 3.74151 5.74291 3.09055 6.08122C2.43959 6.41954 1.87359 6.91074 1.4375 7.5158Z" fill="#76757B"/>
<path d="M10.8125 9.4592H7.53108C7.46951 9.45924 7.40855 9.44669 7.35166 9.42227C7.29477 9.39784 7.24308 9.36202 7.19953 9.31685C7.15599 9.27168 7.12144 9.21805 7.09787 9.15902C7.07431 9.09999 7.06218 9.03672 7.06218 8.97282V7.93342L3.08566 11.3727L7.06248 15.5V14.3255C7.06248 14.2616 7.07461 14.1983 7.09818 14.1393C7.12174 14.0803 7.15629 14.0266 7.19983 13.9815C7.24338 13.9363 7.29507 13.9005 7.35196 13.8761C7.40885 13.8516 7.46982 13.8391 7.53138 13.8391H11.2814C12.4001 13.8378 13.4725 13.3759 14.2634 12.5547C15.0543 11.7336 15.499 10.6203 15.5 9.4592V5.56689H14.5625C14.5614 6.59884 14.1659 7.5882 13.4629 8.3179C12.7599 9.04759 11.8067 9.45804 10.8125 9.4592ZM14.5625 9.4592C14.5615 10.3621 14.2156 11.2278 13.6004 11.8663C12.9853 12.5049 12.1513 12.864 11.2814 12.8651H7.53138C7.31395 12.8652 7.0995 12.9176 6.90487 13.0182C6.71025 13.1188 6.54074 13.2649 6.40967 13.4449L4.47557 11.438L6.37217 9.79985C6.50146 9.99497 6.67455 10.1545 6.87651 10.2647C7.07847 10.3749 7.30322 10.4324 7.53138 10.4323H10.8128C11.5408 10.4323 12.2588 10.2562 12.9098 9.9179C13.5607 9.57958 14.1267 9.08838 14.5628 8.48332L14.5625 9.4592Z" fill="#76757B"/>
<path d="M1.4375 11.405H0.5V12.3781H1.4375V11.405Z" fill="#76757B"/>
<path d="M1.4375 13.3514H0.5V14.3245H1.4375V13.3514Z" fill="#76757B"/>
<path d="M15.5 1.6748H14.5625V2.64788H15.5V1.6748Z" fill="#76757B"/>
<path d="M15.5 3.62085H14.5625V4.59393H15.5V3.62085Z" fill="#76757B"/>
</svg>
