<svg width="44" height="44" viewBox="0 0 44 44" fill="none" xmlns="http://www.w3.org/2000/svg">
<rect width="44" height="44" rx="22" fill="#F4FAFA"/>
<path fill-rule="evenodd" clip-rule="evenodd" d="M17.7091 14.2292C17.0003 15.1091 16.75 16.3899 16.75 18V20C16.75 20.4142 16.4142 20.75 16 20.75C15.5858 20.75 15.25 20.4142 15.25 20V18C15.25 16.3001 15.4997 14.5809 16.5409 13.2883C17.6104 11.9606 19.3716 11.25 22 11.25C24.6284 11.25 26.3896 11.9606 27.4591 13.2883C28.5003 14.5809 28.75 16.3001 28.75 18V20C28.75 20.4142 28.4142 20.75 28 20.75C27.5858 20.75 27.25 20.4142 27.25 20V18C27.25 16.3899 26.9997 15.1091 26.2909 14.2292C25.6104 13.3844 24.3716 12.75 22 12.75C19.6284 12.75 18.3896 13.3844 17.7091 14.2292Z" fill="#259B9C"/>
<path fill-rule="evenodd" clip-rule="evenodd" d="M22 24.25C21.0335 24.25 20.25 25.0335 20.25 26C20.25 26.9665 21.0335 27.75 22 27.75C22.9665 27.75 23.75 26.9665 23.75 26C23.75 25.0335 22.9665 24.25 22 24.25ZM18.75 26C18.75 24.2051 20.2051 22.75 22 22.75C23.7949 22.75 25.25 24.2051 25.25 26C25.25 27.7949 23.7949 29.25 22 29.25C20.2051 29.25 18.75 27.7949 18.75 26Z" fill="#259B9C"/>
<path fill-rule="evenodd" clip-rule="evenodd" d="M13.5303 21.5303C13.0188 22.0418 12.75 22.9946 12.75 25V27C12.75 29.0054 13.0188 29.9582 13.5303 30.4697C14.0418 30.9812 14.9946 31.25 17 31.25H27C29.0054 31.25 29.9582 30.9812 30.4697 30.4697C30.9812 29.9582 31.25 29.0054 31.25 27V25C31.25 22.9946 30.9812 22.0418 30.4697 21.5303C29.9582 21.0188 29.0054 20.75 27 20.75H17C14.9946 20.75 14.0418 21.0188 13.5303 21.5303ZM12.4697 20.4697C13.4582 19.4812 15.0054 19.25 17 19.25H27C28.9946 19.25 30.5418 19.4812 31.5303 20.4697C32.5188 21.4582 32.75 23.0054 32.75 25V27C32.75 28.9946 32.5188 30.5418 31.5303 31.5303C30.5418 32.5188 28.9946 32.75 27 32.75H17C15.0054 32.75 13.4582 32.5188 12.4697 31.5303C11.4812 30.5418 11.25 28.9946 11.25 27V25C11.25 23.0054 11.4812 21.4582 12.4697 20.4697Z" fill="#259B9C"/>
</svg>
