<svg width="44" height="44" viewBox="0 0 44 44" fill="none" xmlns="http://www.w3.org/2000/svg">
<rect width="44" height="44" rx="22" fill="#F4FAFA"/>
<path fill-rule="evenodd" clip-rule="evenodd" d="M18.5474 12.589C18.9764 12.578 19.4486 12.65 19.8494 12.8466L19.854 12.8489L25.1095 15.4717C25.233 15.5346 25.445 15.5827 25.6997 15.5753C25.9538 15.5679 26.1658 15.5076 26.288 15.4382C26.2881 15.4381 26.2879 15.4382 26.288 15.4382L28.6361 14.0993C28.6364 14.0991 28.6358 14.0994 28.6361 14.0993C29.5971 13.5487 30.6434 13.4115 31.4957 13.9064C32.3479 14.4012 32.7491 15.3781 32.7491 16.49V26.22C32.7491 26.7061 32.5797 27.1909 32.3481 27.5879C32.1164 27.9852 31.7797 28.3677 31.3662 28.6082L31.3618 28.6108L27.0318 31.0908L27.0298 31.0919C26.6389 31.3142 26.1691 31.41 25.7407 31.421C25.3117 31.4319 24.8396 31.3599 24.4387 31.1633L24.4331 31.1606L19.1786 28.5283C19.0551 28.4654 18.8431 28.4172 18.5885 28.4247C18.3344 28.4321 18.1223 28.4924 18.0001 28.5617C18 28.5618 18.0002 28.5617 18.0001 28.5617L15.652 29.9007C15.6518 29.9008 15.6523 29.9005 15.652 29.9007C14.691 30.4512 13.6447 30.5884 12.7925 30.0936C11.9402 29.5987 11.5391 28.6218 11.5391 27.51V17.78C11.5391 17.3003 11.7049 16.8184 11.9358 16.4216C12.1668 16.0244 12.5049 15.6401 12.9263 15.3992L17.2583 12.918C17.6492 12.6957 18.119 12.5999 18.5474 12.589ZM17.9998 14.2219C17.9995 14.2221 18.0001 14.2218 17.9998 14.2219L13.6718 16.7008C13.5335 16.7798 13.3662 16.9457 13.2324 17.1758C13.0982 17.4065 13.0391 17.6296 13.0391 17.78V27.51C13.0391 28.2981 13.3129 28.6612 13.5457 28.7964C13.7782 28.9314 14.2273 28.9884 14.9061 28.5993L14.9076 28.5984L17.2576 27.2584C17.6454 27.0379 18.114 26.9379 18.5447 26.9253C18.9742 26.9128 19.4511 26.9843 19.857 27.1904C19.8579 27.1909 19.8587 27.1913 19.8595 27.1917L25.0994 29.8166C25.1001 29.817 25.1009 29.8174 25.1017 29.8177C25.2311 29.8806 25.4479 29.928 25.7024 29.9215C25.9585 29.9149 26.1683 29.856 26.2876 29.7884C26.2878 29.7883 26.2874 29.7886 26.2876 29.7884L30.6119 27.3117C30.6125 27.3114 30.6131 27.311 30.6137 27.3107C30.7499 27.2308 30.9173 27.0637 31.0525 26.8321C31.1884 26.599 31.2491 26.3738 31.2491 26.22V16.49C31.2491 15.7018 30.9752 15.3387 30.7425 15.2036C30.5099 15.0685 30.0609 15.0116 29.382 15.4007L29.3806 15.4015L27.0306 16.7415C26.6427 16.962 26.1741 17.0621 25.7435 17.0747C25.3142 17.0872 24.8375 17.0157 24.4317 16.8098L19.1869 14.1924C19.0575 14.1295 18.8405 14.082 18.5857 14.0885C18.3297 14.095 18.1191 14.1544 17.9998 14.2219Z" fill="#259B9C"/>
<path fill-rule="evenodd" clip-rule="evenodd" d="M18.5586 13.25C18.9728 13.25 19.3086 13.5858 19.3086 14V27C19.3086 27.4142 18.9728 27.75 18.5586 27.75C18.1444 27.75 17.8086 27.4142 17.8086 27V14C17.8086 13.5858 18.1444 13.25 18.5586 13.25Z" fill="#259B9C"/>
<path fill-rule="evenodd" clip-rule="evenodd" d="M25.7285 15.8701C26.1427 15.8701 26.4785 16.2059 26.4785 16.6201V30.0001C26.4785 30.4143 26.1427 30.7501 25.7285 30.7501C25.3143 30.7501 24.9785 30.4143 24.9785 30.0001V16.6201C24.9785 16.2059 25.3143 15.8701 25.7285 15.8701Z" fill="#259B9C"/>
</svg>
