<svg width="25" height="24" viewBox="0 0 25 24" fill="none" xmlns="http://www.w3.org/2000/svg">
<path d="M7.25 14C7.25 14.2652 7.14464 14.5196 6.95711 14.7071C6.76957 14.8946 6.51522 15 6.25 15H5.25C4.98478 15 4.73043 14.8946 4.54289 14.7071C4.35536 14.5196 4.25 14.2652 4.25 14C4.25 13.7348 4.35536 13.4804 4.54289 13.2929C4.73043 13.1054 4.98478 13 5.25 13H6.25C6.51522 13 6.76957 13.1054 6.95711 13.2929C7.14464 13.4804 7.25 13.7348 7.25 14ZM11.25 13H10.25C9.98478 13 9.73043 13.1054 9.54289 13.2929C9.35536 13.4804 9.25 13.7348 9.25 14C9.25 14.2652 9.35536 14.5196 9.54289 14.7071C9.73043 14.8946 9.98478 15 10.25 15H11.25C11.5152 15 11.7696 14.8946 11.9571 14.7071C12.1446 14.5196 12.25 14.2652 12.25 14C12.25 13.7348 12.1446 13.4804 11.9571 13.2929C11.7696 13.1054 11.5152 13 11.25 13ZM6.25 17H5.25C4.98478 17 4.73043 17.1054 4.54289 17.2929C4.35536 17.4804 4.25 17.7348 4.25 18C4.25 18.2652 4.35536 18.5196 4.54289 18.7071C4.73043 18.8946 4.98478 19 5.25 19H6.25C6.51522 19 6.76957 18.8946 6.95711 18.7071C7.14464 18.5196 7.25 18.2652 7.25 18C7.25 17.7348 7.14464 17.4804 6.95711 17.2929C6.76957 17.1054 6.51522 17 6.25 17ZM11.25 17H10.25C9.98478 17 9.73043 17.1054 9.54289 17.2929C9.35536 17.4804 9.25 17.7348 9.25 18C9.25 18.2652 9.35536 18.5196 9.54289 18.7071C9.73043 18.8946 9.98478 19 10.25 19H11.25C11.5152 19 11.7696 18.8946 11.9571 18.7071C12.1446 18.5196 12.25 18.2652 12.25 18C12.25 17.7348 12.1446 17.4804 11.9571 17.2929C11.7696 17.1054 11.5152 17 11.25 17ZM6.25 5H5.25C4.98478 5 4.73043 5.10536 4.54289 5.29289C4.35536 5.48043 4.25 5.73478 4.25 6C4.25 6.26522 4.35536 6.51957 4.54289 6.70711C4.73043 6.89464 4.98478 7 5.25 7H6.25C6.51522 7 6.76957 6.89464 6.95711 6.70711C7.14464 6.51957 7.25 6.26522 7.25 6C7.25 5.73478 7.14464 5.48043 6.95711 5.29289C6.76957 5.10536 6.51522 5 6.25 5ZM11.25 5H10.25C9.98478 5 9.73043 5.10536 9.54289 5.29289C9.35536 5.48043 9.25 5.73478 9.25 6C9.25 6.26522 9.35536 6.51957 9.54289 6.70711C9.73043 6.89464 9.98478 7 10.25 7H11.25C11.5152 7 11.7696 6.89464 11.9571 6.70711C12.1446 6.51957 12.25 6.26522 12.25 6C12.25 5.73478 12.1446 5.48043 11.9571 5.29289C11.7696 5.10536 11.5152 5 11.25 5ZM6.25 9H5.25C4.98478 9 4.73043 9.10536 4.54289 9.29289C4.35536 9.48043 4.25 9.73478 4.25 10C4.25 10.2652 4.35536 10.5196 4.54289 10.7071C4.73043 10.8946 4.98478 11 5.25 11H6.25C6.51522 11 6.76957 10.8946 6.95711 10.7071C7.14464 10.5196 7.25 10.2652 7.25 10C7.25 9.73478 7.14464 9.48043 6.95711 9.29289C6.76957 9.10536 6.51522 9 6.25 9ZM11.25 9H10.25C9.98478 9 9.73043 9.10536 9.54289 9.29289C9.35536 9.48043 9.25 9.73478 9.25 10C9.25 10.2652 9.35536 10.5196 9.54289 10.7071C9.73043 10.8946 9.98478 11 10.25 11H11.25C11.5152 11 11.7696 10.8946 11.9571 10.7071C12.1446 10.5196 12.25 10.2652 12.25 10C12.25 9.73478 12.1446 9.48043 11.9571 9.29289C11.7696 9.10536 11.5152 9 11.25 9ZM24.25 10V19C24.2484 20.3256 23.7211 21.5964 22.7838 22.5338C21.8464 23.4711 20.5756 23.9984 19.25 24H5.25C3.92441 23.9984 2.65356 23.4711 1.71622 22.5338C0.778882 21.5964 0.251588 20.3256 0.25 19L0.25 5C0.251588 3.67441 0.778882 2.40356 1.71622 1.46622C2.65356 0.528882 3.92441 0.00158786 5.25 0L11.25 0C12.5756 0.00158786 13.8464 0.528882 14.7838 1.46622C15.7211 2.40356 16.2484 3.67441 16.25 5H19.25C20.5756 5.00159 21.8464 5.52888 22.7838 6.46622C23.7211 7.40356 24.2484 8.67441 24.25 10ZM5.25 22H14.25V5C14.25 4.20435 13.9339 3.44129 13.3713 2.87868C12.8087 2.31607 12.0456 2 11.25 2H5.25C4.45435 2 3.69129 2.31607 3.12868 2.87868C2.56607 3.44129 2.25 4.20435 2.25 5V19C2.25 19.7956 2.56607 20.5587 3.12868 21.1213C3.69129 21.6839 4.45435 22 5.25 22ZM22.25 10C22.25 9.20435 21.9339 8.44129 21.3713 7.87868C20.8087 7.31607 20.0456 7 19.25 7H16.25V22H19.25C20.0456 22 20.8087 21.6839 21.3713 21.1213C21.9339 20.5587 22.25 19.7956 22.25 19V10ZM19.25 13C19.0522 13 18.8589 13.0586 18.6944 13.1685C18.53 13.2784 18.4018 13.4346 18.3261 13.6173C18.2504 13.8 18.2306 14.0011 18.2692 14.1951C18.3078 14.3891 18.403 14.5673 18.5429 14.7071C18.6827 14.847 18.8609 14.9422 19.0549 14.9808C19.2489 15.0194 19.45 14.9996 19.6327 14.9239C19.8154 14.8482 19.9716 14.72 20.0815 14.5556C20.1914 14.3911 20.25 14.1978 20.25 14C20.25 13.7348 20.1446 13.4804 19.9571 13.2929C19.7696 13.1054 19.5152 13 19.25 13ZM19.25 17C19.0522 17 18.8589 17.0586 18.6944 17.1685C18.53 17.2784 18.4018 17.4346 18.3261 17.6173C18.2504 17.8 18.2306 18.0011 18.2692 18.1951C18.3078 18.3891 18.403 18.5673 18.5429 18.7071C18.6827 18.847 18.8609 18.9422 19.0549 18.9808C19.2489 19.0194 19.45 18.9996 19.6327 18.9239C19.8154 18.8482 19.9716 18.72 20.0815 18.5556C20.1914 18.3911 20.25 18.1978 20.25 18C20.25 17.7348 20.1446 17.4804 19.9571 17.2929C19.7696 17.1054 19.5152 17 19.25 17ZM19.25 9C19.0522 9 18.8589 9.05865 18.6944 9.16853C18.53 9.27841 18.4018 9.43459 18.3261 9.61732C18.2504 9.80004 18.2306 10.0011 18.2692 10.1951C18.3078 10.3891 18.403 10.5673 18.5429 10.7071C18.6827 10.847 18.8609 10.9422 19.0549 10.9808C19.2489 11.0194 19.45 10.9996 19.6327 10.9239C19.8154 10.8482 19.9716 10.72 20.0815 10.5556C20.1914 10.3911 20.25 10.1978 20.25 10C20.25 9.73478 20.1446 9.48043 19.9571 9.29289C19.7696 9.10536 19.5152 9 19.25 9Z" fill="#00E4C9"/>
</svg>
