<svg width="48" height="48" viewBox="0 0 48 48" fill="none" xmlns="http://www.w3.org/2000/svg">
<path d="M13.3549 31.0559H5.61719V23.1054L9.48599 19.14L13.3549 23.1054V31.0559Z" fill="white"/>
<path d="M31.3809 31.0558V15.126L36.8515 10.4082L42.3222 15.126V31.0558H31.3809Z" fill="white"/>
<path d="M36.8521 10.4082L35.2891 11.7561L39.1967 15.126V31.0558H42.3228V15.126L36.8521 10.4082Z" fill="#CCCCCC"/>
<path d="M13.3408 15.9293L19.1325 11.4976L24.9242 15.9293V31.0559H13.3408V15.9293Z" fill="white"/>
<path d="M24.9242 15.9293H13.3408L19.1325 11.4976L24.9242 15.9293Z" fill="#F3F3F3"/>
<path d="M24.9141 10.2727H31.3803V31.0559H24.9141V10.2727Z" fill="white"/>
<path d="M38.2192 31.0558H24.9238V23.0973L28.2477 20.5737L31.5715 23.0973H38.2192V31.0558Z" fill="white"/>
<path d="M38.2195 23.0973L34.7744 20.5737H28.248L31.5719 23.0973H38.2195Z" fill="#F3F3F3"/>
<path d="M31.5713 23.0974H38.2189V31.0559H31.5713V23.0974Z" fill="white"/>
<path d="M29.4213 31.0559H27.0166V27.8951C27.0166 27.2311 27.5549 26.6927 28.219 26.6927C28.883 26.6927 29.4213 27.2311 29.4213 27.8951V31.0559Z" fill="#76757B"/>
<path d="M31.3818 15.126H42.3231L36.8524 10.4082L31.3818 15.126Z" fill="#F3F3F3"/>
<path d="M36.8521 10.4082L35.2891 11.7561L39.1967 15.126H42.3228L36.8521 10.4082Z" fill="#CCCCCC"/>
<path d="M24.9346 10.2599C24.9346 8.48528 26.3731 7.04675 28.1477 7.04675C29.9223 7.04675 31.3608 8.48528 31.3608 10.2599H24.9346Z" fill="#CCCCCC"/>
<path d="M28.9952 16.9319H27.2998V14.5854C27.2998 14.1172 27.6793 13.7377 28.1475 13.7377C28.6157 13.7377 28.9952 14.1172 28.9952 14.5854V16.9319Z" fill="#76757B"/>
<path d="M9.48599 23.1054H5.61719L9.48599 19.14L13.3549 23.1054H9.48599Z" fill="#F3F3F3"/>
<path d="M4.58594 30.2411H43.4271V43.4096H4.58594V30.2411Z" fill="#CCCCCC"/>
<path d="M40.3008 30.2411H43.4268V43.4096H40.3008V30.2411Z" fill="#76757B"/>
<path d="M40.2583 35.9594C41.1961 35.8405 42.3936 35.7749 43.4277 35.7749V33.2354C33.6462 33.0604 21.201 35.5331 14.1387 43.4096H26.508C29.8887 39.1199 35.0233 36.9161 40.2583 35.9594V35.9594Z" fill="#F3F3F3"/>
<path d="M8.52894 38.9815C8.52894 40.0978 7.62394 41.0028 6.50763 41.0028C5.39132 41.0028 4.48633 40.0978 4.48633 38.9815C4.48633 37.8652 5.39132 33.6392 6.50763 33.6392C7.62394 33.6392 8.52894 37.8652 8.52894 38.9815V38.9815Z" fill="#76757B"/>
<path d="M15.3756 32.6954C15.3756 33.8117 14.4706 34.7167 13.3543 34.7167C12.238 34.7167 11.333 33.8117 11.333 32.6954C11.333 31.5791 12.238 27.353 13.3543 27.353C14.4706 27.353 15.3756 31.5791 15.3756 32.6954Z" fill="#76757B"/>
<path d="M40.2575 37.5755C40.2575 38.6918 39.3525 39.5968 38.2361 39.5968C37.1198 39.5968 36.2148 38.6918 36.2148 37.5755C36.2148 36.4592 37.1198 32.2332 38.2361 32.2332C39.3525 32.2332 40.2575 36.4592 40.2575 37.5755Z" fill="#76757B"/>
<path d="M43.4268 33.2354C42.4106 33.2172 41.3654 33.2281 40.3008 33.2702V35.9542C41.232 35.8386 42.4084 35.7749 43.4268 35.7749V33.2354Z" fill="#76757B"/>
<path d="M17.892 39.487C15.0971 41.3988 13.7488 42.9635 13.6928 43.0292C13.2071 43.5986 14.0828 44.3754 14.5842 43.7906C14.597 43.7756 15.9002 42.2698 18.5538 40.4546C19.1794 40.0267 18.5176 39.0592 17.892 39.487V39.487Z" fill="#18332F"/>
<path d="M43.2155 35.1888C42.3026 35.1888 41.3916 35.24 40.5021 35.3403C40.3845 34.8404 40.2453 34.3423 40.0774 33.8568C41.1065 33.8157 42.1551 33.8025 43.2051 33.8215C43.9638 33.8335 43.9834 32.6629 43.2262 32.6494C42.0004 32.6275 40.776 32.6467 39.5819 32.7046C39.1856 31.9894 38.745 31.6472 38.2365 31.6472C37.6801 31.6472 37.2052 32.0567 36.7804 32.9164C30.6695 33.5489 25.137 35.2471 20.3318 37.9677C19.6875 38.3324 20.2616 39.3547 20.9094 38.9878C25.415 36.4367 30.5884 34.811 36.2985 34.1484C36.0646 34.8819 35.8845 35.6379 35.7565 36.397C29.3555 38.5721 26.1672 42.8807 26.0333 43.065C25.599 43.6627 26.5184 44.3885 26.9812 43.7548C27.0111 43.7138 29.9286 39.7896 35.6318 37.6849C35.681 38.8725 36.5283 39.857 37.6504 40.1158V42.0036C37.6504 42.7614 38.8226 42.7614 38.8226 42.0036V40.1158C40.5663 39.7136 40.9817 38.0389 40.7324 36.4942C41.547 36.4061 42.3803 36.3611 43.2156 36.3611C43.9734 36.3611 43.9734 35.1888 43.2155 35.1888V35.1888ZM38.8226 38.8843V37.0718C38.8226 36.7481 38.5602 36.4856 38.2364 36.4856C37.9127 36.4856 37.6503 36.7481 37.6503 37.0718V38.8843C37.1506 38.6596 36.8013 38.158 36.8013 37.5755C36.8013 37.1122 36.995 35.9415 37.308 34.858C37.4476 34.3746 37.5837 33.9977 37.7084 33.7064C37.7118 33.699 37.7151 33.6917 37.7181 33.6841C37.948 33.1527 38.1378 32.9134 38.2364 32.8373C38.3898 32.9556 38.7629 33.4667 39.1649 34.858C39.4779 35.9415 39.6716 37.1123 39.6716 37.5755C39.6716 38.158 39.3222 38.6595 38.8226 38.8843V38.8843Z" fill="#18332F"/>
<path d="M6.60744 33.0532C5.80647 33.0532 5.17414 33.9008 4.61763 35.7204C4.23102 36.9846 4 38.3713 4 38.9816C4 40.2178 4.86498 41.255 6.0213 41.5218V43.4096C6.0213 44.1674 7.19357 44.1674 7.19357 43.4096V41.5218C8.3499 41.2551 9.21488 40.2178 9.21488 38.9816C9.21488 38.3713 8.98386 36.9846 8.59725 35.7204C8.04073 33.9008 7.40841 33.0532 6.60744 33.0532V33.0532ZM7.19357 40.2903V38.4779C7.19357 37.72 6.0213 37.72 6.0213 38.4779V40.2903C5.5216 40.0657 5.17227 39.5641 5.17227 38.9816C5.17227 38.5183 5.36601 37.3476 5.679 36.2641C6.08093 34.8727 6.45411 34.3617 6.60744 34.2434C6.76077 34.3617 7.13394 34.8727 7.53588 36.2641C7.84887 37.3476 8.04261 38.5183 8.04261 38.9816C8.04261 39.5641 7.69327 40.0657 7.19357 40.2903V40.2903Z" fill="#18332F"/>
<path d="M43.4271 29.6549H42.9087V28.131C42.9087 27.3731 41.7364 27.3731 41.7364 28.131V29.6549H38.8052V23.0973C38.8052 22.9129 38.7141 22.7335 38.5654 22.6245L35.1203 20.1009C35.0198 20.0273 34.8985 19.9876 34.7739 19.9876H31.9674V15.7121H41.7364V25.5205C41.7364 26.2783 42.9087 26.2783 42.9087 25.5205V15.126C42.9087 14.9577 42.8329 14.792 42.7053 14.6821L37.2347 9.96433C37.0147 9.77465 36.689 9.77465 36.469 9.96433L31.9666 13.8471V10.2726C31.9666 8.42998 30.5436 6.78748 28.7335 6.5059V4.56837C28.7335 3.81054 27.5612 3.81054 27.5612 4.56837V6.5059C25.7514 6.7874 24.3281 8.43014 24.3281 10.2726V14.7354L19.4882 11.032C19.2781 10.8712 18.986 10.8712 18.7759 11.032L17.0748 12.3336C16.4729 12.7941 17.1852 13.7252 17.7871 13.2647L19.132 12.2356L23.1932 15.3431H15.0709L15.732 14.8372C16.3339 14.3767 15.6217 13.4458 15.0197 13.9062L12.9842 15.4638C12.841 15.5732 12.7542 15.7491 12.7542 15.9293V21.6616L9.9061 18.7316C9.67626 18.495 9.29652 18.4948 9.06629 18.7308L5.19733 22.6961C5.09167 22.8044 5.03071 22.9541 5.03071 23.1054V29.6549H4.58595C3.82812 29.6549 3.82812 30.8272 4.58595 30.8272L10.9995 30.8605C10.8374 31.6291 10.7472 32.3139 10.7472 32.6954C10.7472 33.9316 11.6121 34.9688 12.7685 35.2356V37.1234C12.7685 37.8812 13.9407 37.8812 13.9407 37.1234V35.2356C15.097 34.9688 15.962 33.9316 15.962 32.6954C15.962 32.3139 15.8717 31.6291 15.7096 30.8605L43.4271 30.8272C44.185 30.8272 44.185 29.6549 43.4271 29.6549V29.6549ZM15.4098 29.6549C15.3885 29.5811 15.3667 29.5075 15.3443 29.4342C14.9308 28.0817 14.4752 27.2667 13.9397 26.9371L13.9264 23.1033V16.5154H24.3281V18.1328C24.3281 18.1679 24.3318 18.202 24.3377 18.2354V23.0973V29.6549H15.4098ZM28.2478 19.9876C28.2475 19.9876 28.2472 19.9876 28.2469 19.9876C28.2186 19.9876 28.1909 19.9904 28.1636 19.9943C28.1581 19.995 28.1525 19.9958 28.147 19.9968C28.1192 20.0017 28.0921 20.0082 28.0658 20.0167C28.0628 20.0176 28.06 20.0189 28.057 20.0199C28.0304 20.029 28.0045 20.04 27.9797 20.0528C27.9777 20.0538 27.9756 20.0547 27.9736 20.0558C27.9477 20.0695 27.9232 20.0854 27.8999 20.1027C27.8978 20.1042 27.8953 20.1053 27.8932 20.1069L25.51 21.9163V15.9291C25.51 15.9072 25.5086 15.8856 25.5063 15.8644C25.5056 15.8588 25.5045 15.8535 25.5038 15.848C25.5027 15.8408 25.5017 15.8336 25.5005 15.8265V10.8588H30.7944V19.9877H28.2478V19.9876ZM25.5099 23.3883L28.2476 21.3097L30.9852 23.3883V29.6549H30.0068V27.895C30.0068 26.9088 29.2045 26.1065 28.2183 26.1065C27.2322 26.1065 26.4298 26.9088 26.4298 27.895V29.6549H25.5099V23.3883H25.5099ZM28.8346 29.6549H27.6021V27.895C27.6021 27.5552 27.8785 27.2788 28.2184 27.2788C28.5582 27.2788 28.8346 27.5552 28.8346 27.895V29.6549ZM32.1575 29.6549V23.6835H37.6329V29.6549H32.1575ZM36.427 22.5112H31.7687L29.9889 21.1599H34.5822L36.427 22.5112ZM36.8519 11.1822L40.7454 14.5398H32.9585L36.8519 11.1822ZM28.1474 7.63284C29.3945 7.63284 30.4414 8.50634 30.7085 9.67368H25.5864C25.8533 8.50634 26.9002 7.63284 28.1474 7.63284ZM9.48494 19.9801L11.9532 22.5192H9.48572H7.00763L9.48494 19.9801ZM6.20298 23.6915H9.48572H12.7542V26.9469C12.2252 27.2825 11.7745 28.0946 11.3648 29.4342C11.3424 29.5075 11.3206 29.5811 11.2993 29.6549H6.20306V23.6915H6.20298ZM13.9407 34.0041V32.1916C13.9407 31.8679 13.6784 31.6055 13.3546 31.6055C13.0308 31.6055 12.7685 31.8679 12.7685 32.1916V34.0041C12.2688 33.7794 11.9194 33.2779 11.9194 32.6954C11.9194 32.232 12.1132 31.0613 12.4261 29.9778C12.8281 28.5864 13.2012 28.0754 13.3546 27.9572C13.5079 28.0755 13.8811 28.5865 14.283 29.9778C14.596 31.0613 14.7897 32.2321 14.7897 32.6954C14.7897 33.2779 14.4404 33.7794 13.9407 34.0041Z" fill="#18332F"/>
<path d="M19.132 18.115C18.8083 18.115 18.5459 18.3774 18.5459 18.7011V21.7234C18.5459 22.0471 18.8083 22.3095 19.132 22.3095C19.4558 22.3095 19.7182 22.0471 19.7182 21.7234V18.7011C19.7182 18.3774 19.4558 18.115 19.132 18.115Z" fill="#18332F"/>
<path d="M22.0207 18.115C21.6969 18.115 21.4346 18.3774 21.4346 18.7011V21.7234C21.4346 22.0471 21.6969 22.3095 22.0207 22.3095C22.3445 22.3095 22.6068 22.0471 22.6068 21.7234V18.7011C22.6068 18.3774 22.3445 18.115 22.0207 18.115Z" fill="#18332F"/>
<path d="M19.132 23.8951C18.8083 23.8951 18.5459 24.1576 18.5459 24.4813V27.5035C18.5459 27.8272 18.8083 28.0897 19.132 28.0897C19.4558 28.0897 19.7182 27.8272 19.7182 27.5035V24.4813C19.7182 24.1576 19.4558 23.8951 19.132 23.8951Z" fill="#18332F"/>
<path d="M22.0207 23.8951C21.6969 23.8951 21.4346 24.1576 21.4346 24.4813V27.5035C21.4346 27.8272 21.6969 28.0897 22.0207 28.0897C22.3445 28.0897 22.6068 27.8272 22.6068 27.5035V24.4813C22.6068 24.1576 22.3445 23.8951 22.0207 23.8951Z" fill="#18332F"/>
<path d="M16.2434 18.115C15.9196 18.115 15.6572 18.3774 15.6572 18.7011V21.7234C15.6572 22.0471 15.9196 22.3095 16.2434 22.3095C16.5671 22.3095 16.8295 22.0471 16.8295 21.7234V18.7011C16.8295 18.3774 16.5671 18.115 16.2434 18.115Z" fill="#18332F"/>
<path d="M16.2434 23.8951C15.9196 23.8951 15.6572 24.1576 15.6572 24.4813V27.5035C15.6572 27.8272 15.9196 28.0897 16.2434 28.0897C16.5671 28.0897 16.8295 27.8272 16.8295 27.5035V24.4813C16.8295 24.1576 16.5671 23.8951 16.2434 23.8951Z" fill="#18332F"/>
<path d="M28.2185 24.5456C28.9729 24.5456 28.9741 23.3733 28.2185 23.3733C27.4642 23.3733 27.463 24.5456 28.2185 24.5456Z" fill="#18332F"/>
<path d="M33.7492 24.7985C33.4254 24.7985 33.1631 25.0609 33.1631 25.3846V26.3675C33.1631 26.6912 33.4254 26.9536 33.7492 26.9536C34.073 26.9536 34.3354 26.6912 34.3354 26.3675V25.3846C34.3354 25.0609 34.0729 24.7985 33.7492 24.7985Z" fill="#18332F"/>
<path d="M36.0344 24.7985C35.7106 24.7985 35.4482 25.0609 35.4482 25.3846V26.3675C35.4482 26.6912 35.7106 26.9536 36.0344 26.9536C36.3582 26.9536 36.6205 26.6912 36.6205 26.3675V25.3846C36.6205 25.0609 36.3581 24.7985 36.0344 24.7985Z" fill="#18332F"/>
<path d="M28.1477 13.1516C27.3571 13.1516 26.7139 13.7948 26.7139 14.5855V16.932C26.7139 17.2557 26.9762 17.5182 27.3 17.5182H28.9954C29.3192 17.5182 29.5815 17.2557 29.5815 16.932V14.5855C29.5816 13.7948 28.9384 13.1516 28.1477 13.1516V13.1516ZM28.4094 16.3459H27.8862V14.5855C27.8862 14.4412 28.0035 14.3239 28.1478 14.3239C28.2921 14.3239 28.4094 14.4412 28.4094 14.5855V16.3459H28.4094Z" fill="#18332F"/>
<path d="M11.4906 27.5664V25.9227C11.4906 25.599 11.2283 25.3365 10.9045 25.3365C10.5807 25.3365 10.3184 25.599 10.3184 25.9227V27.5664C10.3184 27.8901 10.5807 28.1526 10.9045 28.1526C11.2283 28.1526 11.4906 27.8901 11.4906 27.5664Z" fill="#18332F"/>
<path d="M8.06758 25.3365C7.7438 25.3365 7.48145 25.599 7.48145 25.9227V27.5664C7.48145 27.8901 7.7438 28.1526 8.06758 28.1526C8.39136 28.1526 8.65371 27.8901 8.65371 27.5664V25.9227C8.65371 25.599 8.39136 25.3365 8.06758 25.3365Z" fill="#18332F"/>
<path d="M33.2783 17.3341V18.6427C33.2783 18.9664 33.5407 19.2288 33.8645 19.2288C34.1882 19.2288 34.4506 18.9664 34.4506 18.6427V17.3341C34.4506 17.0104 34.1882 16.7479 33.8645 16.7479C33.5407 16.7479 33.2783 17.0104 33.2783 17.3341Z" fill="#18332F"/>
<path d="M39.2129 17.3341V18.6427C39.2129 18.9664 39.4752 19.2288 39.799 19.2288C40.1228 19.2288 40.3852 18.9664 40.3852 18.6427V17.3341C40.3852 17.0104 40.1228 16.7479 39.799 16.7479C39.4752 16.7479 39.2129 17.0104 39.2129 17.3341Z" fill="#18332F"/>
<path d="M36.2168 17.3341V18.6427C36.2168 18.9664 36.4792 19.2288 36.8029 19.2288C37.1267 19.2288 37.3891 18.9664 37.3891 18.6427V17.3341C37.3891 17.0104 37.1267 16.7479 36.8029 16.7479C36.4792 16.7479 36.2168 17.0104 36.2168 17.3341Z" fill="#18332F"/>
</svg>
